<svg width="223" height="60" viewBox="0 0 223 60" fill="none" xmlns="http://www.w3.org/2000/svg">
<rect width="60" height="60" rx="30" fill="#0FB05A"/>
<path d="M42.894 28.52L46.548 22.4H43.74L41.49 26.18L39.24 22.4H36.432L40.086 28.538L36.234 35H39.042L41.49 30.896L43.938 35H46.764L42.894 28.52ZM56.7963 31.454C56.8503 31.112 56.8863 30.806 56.8863 30.5C56.8863 29.15 56.4543 28.034 55.5903 27.116C54.7443 26.198 53.6463 25.748 52.3323 25.748C50.9463 25.748 49.7943 26.198 48.9123 27.116C48.0303 28.016 47.5803 29.15 47.5803 30.5C47.5803 31.868 48.0303 33.002 48.9303 33.902C49.8303 34.802 51.0183 35.252 52.5123 35.252C54.2403 35.252 55.5543 34.604 56.4363 33.326L54.5643 32.246C54.1143 32.84 53.4303 33.146 52.5483 33.146C51.1623 33.146 50.3163 32.588 50.0103 31.454H56.7963ZM49.9743 29.654C50.2443 28.502 51.0903 27.836 52.3323 27.836C53.3943 27.836 54.2943 28.43 54.5643 29.654H49.9743ZM68.4613 25.748C67.2733 25.748 66.3733 26.18 65.7793 27.044C65.2573 26.18 64.4293 25.748 63.3313 25.748C62.1973 25.748 61.3693 26.144 60.8293 26.954V26H58.5073V35H60.8293V29.942C60.8293 28.628 61.4953 27.908 62.5213 27.908C63.4753 27.908 64.0333 28.538 64.0333 29.618V35H66.3553V29.942C66.3553 28.628 66.9673 27.908 68.0293 27.908C68.9833 27.908 69.5413 28.538 69.5413 29.618V35H71.8633V29.456C71.8633 27.206 70.5313 25.748 68.4613 25.748ZM83.4834 26H81.4494V23.48L79.1274 24.182V26H77.5614V28.232H79.1274V31.976C79.1274 34.442 80.2974 35.36 83.4834 35V32.894C82.1514 32.966 81.4494 32.948 81.4494 31.976V28.232H83.4834V26ZM91.0572 25.01H93.1992L91.4172 22.58H89.2212L87.4572 25.01H89.5992L90.3372 23.912L91.0572 25.01ZM92.1012 27.062C91.3992 26.18 90.4272 25.748 89.1672 25.748C87.9612 25.748 86.9352 26.216 86.0712 27.134C85.2252 28.052 84.7932 29.168 84.7932 30.5C84.7932 31.832 85.2252 32.966 86.0712 33.884C86.9352 34.802 87.9612 35.252 89.1672 35.252C90.4272 35.252 91.3992 34.82 92.1012 33.938V35H94.4232V26H92.1012V27.062ZM87.8172 32.336C87.3492 31.85 87.1152 31.238 87.1152 30.5C87.1152 29.762 87.3492 29.15 87.8172 28.682C88.2852 28.196 88.8792 27.962 89.5992 27.962C90.3192 27.962 90.9132 28.196 91.3812 28.682C91.8672 29.15 92.1012 29.762 92.1012 30.5C92.1012 31.238 91.8672 31.85 91.3812 32.336C90.9132 32.804 90.3192 33.038 89.5992 33.038C88.8792 33.038 88.2852 32.804 87.8172 32.336ZM92.4612 23.21H94.5492L96.4032 20.924H93.8112L92.4612 23.21ZM101.677 26H99.6428V23.48L97.3208 24.182V26H95.7548V28.232H97.3208V31.976C97.3208 34.442 98.4908 35.36 101.677 35V32.894C100.345 32.966 99.6428 32.948 99.6428 31.976V28.232H101.677V26ZM112.239 35.252C113.985 35.252 115.515 34.334 116.307 32.912L114.291 31.76C113.931 32.498 113.157 32.948 112.221 32.948C111.519 32.948 110.943 32.714 110.493 32.264C110.043 31.796 109.809 31.202 109.809 30.5C109.809 29.06 110.835 28.034 112.221 28.034C113.139 28.034 113.913 28.502 114.273 29.24L116.271 28.07C115.533 26.648 113.985 25.748 112.239 25.748C110.889 25.748 109.755 26.198 108.837 27.116C107.937 28.034 107.487 29.15 107.487 30.5C107.487 31.85 107.937 32.966 108.837 33.884C109.755 34.802 110.889 35.252 112.239 35.252ZM123.635 25.01C123.581 24.578 123.707 24.47 123.941 24.362C124.319 24.164 124.661 23.732 124.661 23.03C124.661 22.076 123.887 21.536 122.861 21.536C121.853 21.536 121.169 21.986 120.773 22.886L122.123 23.39C122.285 22.94 122.537 22.868 122.825 22.868C123.041 22.868 123.113 22.976 123.113 23.084C123.113 23.282 122.987 23.408 122.897 23.462C122.915 23.444 122.735 23.57 122.735 23.57C122.267 23.804 122.105 23.984 122.105 25.01H123.635ZM124.445 27.062C123.743 26.18 122.771 25.748 121.511 25.748C120.305 25.748 119.279 26.216 118.415 27.134C117.569 28.052 117.137 29.168 117.137 30.5C117.137 31.832 117.569 32.966 118.415 33.884C119.279 34.802 120.305 35.252 121.511 35.252C122.771 35.252 123.743 34.82 124.445 33.938V35H126.767V26H124.445V27.062ZM120.161 32.336C119.693 31.85 119.459 31.238 119.459 30.5C119.459 29.762 119.693 29.15 120.161 28.682C120.629 28.196 121.223 27.962 121.943 27.962C122.663 27.962 123.257 28.196 123.725 28.682C124.211 29.15 124.445 29.762 124.445 30.5C124.445 31.238 124.211 31.85 123.725 32.336C123.257 32.804 122.663 33.038 121.943 33.038C121.223 33.038 120.629 32.804 120.161 32.336Z" fill="black"/>
<path d="M180.53 30.5303C180.823 30.2374 180.823 29.7626 180.53 29.4697L175.757 24.6967C175.464 24.4038 174.99 24.4038 174.697 24.6967C174.404 24.9896 174.404 25.4645 174.697 25.7574L178.939 30L174.697 34.2426C174.404 34.5355 174.404 35.0104 174.697 35.3033C174.99 35.5962 175.464 35.5962 175.757 35.3033L180.53 30.5303ZM152 30.75H180V29.25H152V30.75Z" fill="black"/>
</svg>
