<svg width="48" height="48" viewBox="0 0 48 48" fill="none" xmlns="http://www.w3.org/2000/svg">
<rect width="48" height="48" rx="24" fill="#1BB763"/>
<path d="M39.9996 19.6274C35.8955 21.2636 32.3069 23.2234 29.2336 25.2211C26.8666 26.7623 24.786 28.3415 23.0298 29.8446C17.8377 34.2397 15.2607 37.9118 15.2607 37.9118C15.5471 34.8105 16.1961 30.7007 17.6086 25.9632C18.2004 23.9464 18.9448 21.8344 19.8611 19.6274C21.1209 16.5451 22.7244 13.3106 24.7478 10C24.7669 10.0761 25.3968 12.7018 26.7139 17.1539C26.7139 17.1539 21.9227 22.4813 18.8112 30.4344C18.8112 30.4344 24.8623 21.9105 28.6419 19.6274H39.9996Z" fill="white"/>
<path d="M17.771 19.7393C17.0099 21.6675 16.3722 23.5341 15.8374 25.3393L8 19.7393H17.771Z" fill="white"/>
<path d="M34.1371 38L24.6104 31.2448C26.2708 29.865 28.1388 28.4439 30.2351 27.0435C31.3558 30.3798 32.6427 34.0664 34.1371 38Z" fill="white"/>
</svg>
