<svg width="139" height="56" viewBox="0 0 139 56" fill="none" xmlns="http://www.w3.org/2000/svg">
<rect width="56" height="56" rx="28" fill="#0FB05A"/>
<path d="M35.654 20.4H33.17V33H40.46V30.624H35.654V20.4ZM42.9152 23.208C43.7072 23.208 44.3552 22.578 44.3552 21.822C44.3552 21.066 43.7072 20.418 42.9152 20.418C42.1412 20.418 41.4932 21.066 41.4932 21.822C41.4932 22.578 42.1412 23.208 42.9152 23.208ZM44.0852 33V24H41.7632V33H44.0852ZM51.3224 22.938H53.6264L51.7184 20.328H49.3604L47.4524 22.938H49.7564L50.5484 21.768L51.3224 22.938ZM54.9584 29.454C55.0124 29.112 55.0484 28.806 55.0484 28.5C55.0484 27.15 54.6164 26.034 53.7524 25.116C52.9064 24.198 51.8084 23.748 50.4944 23.748C49.1084 23.748 47.9564 24.198 47.0744 25.116C46.1924 26.016 45.7424 27.15 45.7424 28.5C45.7424 29.868 46.1924 31.002 47.0924 31.902C47.9924 32.802 49.1804 33.252 50.6744 33.252C52.4024 33.252 53.7164 32.604 54.5984 31.326L52.7264 30.246C52.2764 30.84 51.5924 31.146 50.7104 31.146C49.3244 31.146 48.4784 30.588 48.1724 29.454H54.9584ZM48.1364 27.654C48.4064 26.502 49.2524 25.836 50.4944 25.836C51.5564 25.836 52.4564 26.43 52.7264 27.654H48.1364ZM61.6734 23.748C60.4494 23.748 59.5494 24.162 58.9914 25.008V24H56.6694V33H58.9914V28.14C58.9914 26.646 59.7654 25.908 60.9714 25.908C62.0514 25.908 62.7534 26.556 62.7534 27.762V33H65.0754V27.474C65.0754 26.304 64.7514 25.404 64.1034 24.738C63.4734 24.072 62.6634 23.748 61.6734 23.748ZM76.5621 23.748C75.3381 23.748 74.4381 24.162 73.8801 25.008V20.4H71.5581V33H73.8801V28.14C73.8801 26.646 74.6541 25.908 75.8601 25.908C76.9401 25.908 77.6421 26.556 77.6421 27.762V33H79.9641V27.474C79.9641 26.304 79.6401 25.404 78.9921 24.738C78.3621 24.072 77.5521 23.748 76.5621 23.748ZM87.0048 22.938H89.1468L87.3648 20.508H85.1688L83.4048 22.938H85.5468L86.2848 21.84L87.0048 22.938ZM90.6948 29.454C90.7488 29.112 90.7848 28.806 90.7848 28.5C90.7848 27.15 90.3528 26.034 89.4888 25.116C88.6428 24.198 87.5448 23.748 86.2308 23.748C84.8448 23.748 83.6928 24.198 82.8108 25.116C81.9288 26.016 81.4788 27.15 81.4788 28.5C81.4788 29.868 81.9288 31.002 82.8288 31.902C83.7288 32.802 84.9168 33.252 86.4108 33.252C88.1388 33.252 89.4528 32.604 90.3348 31.326L88.4628 30.246C88.0128 30.84 87.3288 31.146 86.4468 31.146C85.0608 31.146 84.2148 30.588 83.9088 29.454H90.6948ZM83.8728 27.654C84.1428 26.502 84.9888 25.836 86.2308 25.836C87.2928 25.836 88.1928 26.43 88.4628 27.654H83.8728ZM86.2128 37.104C87.0048 37.104 87.6528 36.474 87.6528 35.718C87.6528 34.962 87.0048 34.314 86.2128 34.314C85.4388 34.314 84.7908 34.962 84.7908 35.718C84.7908 36.474 85.4388 37.104 86.2128 37.104ZM101.91 23.748C100.686 23.748 99.7858 24.162 99.2278 25.008V24H96.9058V33H99.2278V28.14C99.2278 26.646 100.002 25.908 101.208 25.908C102.288 25.908 102.99 26.556 102.99 27.762V33H105.312V27.474C105.312 26.304 104.988 25.404 104.34 24.738C103.71 24.072 102.9 23.748 101.91 23.748ZM114.188 25.116C113.504 24.198 112.55 23.748 111.308 23.748C110.048 23.748 108.986 24.198 108.122 25.098C107.258 25.998 106.826 27.078 106.826 28.356C106.826 29.634 107.258 30.732 108.104 31.632C108.968 32.514 110.03 32.964 111.308 32.964C112.55 32.964 113.504 32.514 114.188 31.596V32.568C114.188 33.99 113.288 34.782 111.83 34.782C110.714 34.782 109.922 34.368 109.472 33.522L107.492 34.656C108.284 36.096 109.814 36.852 111.758 36.852C113.054 36.852 114.152 36.492 115.07 35.754C115.988 35.016 116.456 33.954 116.456 32.568V24H114.188V25.116ZM114.188 28.356C114.188 29.796 113.126 30.822 111.668 30.822C110.21 30.822 109.148 29.796 109.148 28.356C109.148 27.654 109.382 27.06 109.85 26.61C110.336 26.142 110.93 25.908 111.668 25.908C112.406 25.908 113 26.142 113.468 26.61C113.954 27.06 114.188 27.654 114.188 28.356ZM125.402 25.062C124.7 24.18 123.728 23.748 122.468 23.748C121.262 23.748 120.236 24.216 119.372 25.134C118.526 26.052 118.094 27.168 118.094 28.5C118.094 29.832 118.526 30.966 119.372 31.884C120.236 32.802 121.262 33.252 122.468 33.252C123.728 33.252 124.7 32.82 125.402 31.938V33H127.724V24H125.402V25.062ZM121.118 30.336C120.65 29.85 120.416 29.238 120.416 28.5C120.416 27.762 120.65 27.15 121.118 26.682C121.586 26.196 122.18 25.962 122.9 25.962C123.62 25.962 124.214 26.196 124.682 26.682C125.168 27.15 125.402 27.762 125.402 28.5C125.402 29.238 125.168 29.85 124.682 30.336C124.214 30.804 123.62 31.038 122.9 31.038C122.18 31.038 121.586 30.804 121.118 30.336ZM133.7 30.048L131.36 24H128.822L132.512 32.712C132.08 33.936 131.396 34.458 130.154 34.44V36.6C132.458 36.726 133.97 35.592 134.906 33L138.182 24H135.698L133.7 30.048Z" fill="#131826"/>
</svg>
