<svg width="454" height="412" viewBox="0 0 454 412" fill="none" xmlns="http://www.w3.org/2000/svg">
<g clip-path="url(#clip0_312_1499)">
<path d="M98.1462 120.61V120.484L97.8719 119.072L97.7453 118.945C97.7159 118.852 97.6807 118.76 97.6398 118.671L97.4078 117.913H97.3023C97.0973 117.477 96.8648 117.055 96.6061 116.649L95.298 114.752L95.0026 114.626L94.0955 113.72L93.8634 113.298L92.1334 112.076L91.8591 111.697H91.4794L90.6354 111.17L90.3823 111.044L90.1502 110.917L87.0699 108.979L85.7407 108.389L85.4666 108.01L84.7281 107.778H84.4961L82.9349 107.441L82.0487 107.019H81.2892L80.1288 106.619L78.5887 106.134L73.5464 105.018L72.9978 104.47L72.386 104.659H71.3312H70.9724H70.2763L68.7151 104.533H68.0188H67.1537H64.601H64.369H63.0819H61.8161H60.5713H60.3392H58.8413H57.913L56.7526 104.427L55.9088 104.659L53.0817 105.081C52.7792 105.167 52.4676 105.216 52.1534 105.228L50.2967 105.418H50.1069H49.9381L49.6427 105.544H49.2207H47.533L46.9423 105.924H46.4781H45.9929L43.8831 106.577L43.2291 106.766H42.9548L42.554 106.914L40.2543 107.588L39.2416 108.01L38.0601 108.347H37.6804L36.8153 108.579L31.2668 108.705L34.0938 110.096L32.9757 110.96L32.2583 111.444C31.9958 111.634 31.809 111.91 31.7309 112.224L31.5832 112.413V112.772L31.9208 114.015L32.5326 114.268C32.9025 114.563 33.3677 114.713 33.8406 114.689H34.3681L35.212 114.984L36.6044 116.396V114.542C36.8174 114.418 36.9813 114.224 37.0686 113.994C37.1195 113.793 37.1195 113.583 37.0686 113.383L37.5327 112.898L39.6425 111.971L40.1488 111.381L42.2586 110.622L43.1236 110.454L43.3768 110.159H43.7777L44.5794 109.737L45.0857 110.117L45.2334 109.885V110.538L46.9634 109.105L48.7355 108.557L51.7947 107.968L54.8328 107.609L55.2548 107.799L56.3518 107.609L56.8581 107.42H57.1957V107.609L58.3983 107.946L59.3055 107.757L60.2127 107.251H60.6558H61.2675L62.449 107.42H63.9681H64.6642H65.7402L69.0948 107.672L70.1708 107.946H70.4872L71.9218 108.284L72.1118 108.431L74.6224 108.684L75.846 108.979H76.4156L79.2639 109.78L79.8757 109.927L80.2343 110.138L81.1837 110.327L85.7407 112.097H85.8673C86.7956 112.498 87.7872 112.94 88.7999 113.467V113.678L89.2641 113.888L89.5384 114.204L90.4245 114.457L92.7241 116.29L93.4203 117.112L93.6314 117.365L94.1166 118.187L94.3486 119.009L94.7072 119.683L94.8972 120.505V121.052H93.6314L94.2643 121.706H93.3149L94.3275 122.717L94.2009 122.823L94.7706 123.391V123.623V123.75L93.2937 126.405V126.552L92.682 126.721L91.6903 127.648L91.2051 128.448L90.6988 128.322V129.376L89.897 129.671L89.2008 130.239L88.821 130.872L87.091 132.052L84.9813 133.505L79.8757 136.877L79.0951 137.319L78.5254 137.635H78.1245H77.1962L76.9431 138.141L75.7827 137.003V138.921C75.5034 139.028 75.2349 139.162 74.981 139.321L66.542 142.84H66.0567V143.008L63.3562 144.252H63.2296L62.871 144.378L59.2632 145.706L52.934 147.813C52.3643 147.981 51.8158 148.171 51.2039 148.318L50.8453 148.424C50.6295 148.46 50.4177 148.517 50.2124 148.592L48.2924 149.014L47.6174 149.288L45.9506 149.688L46.3093 147.581L46.7312 147.075L46.9634 146.001L48.2924 142.355C48.9699 141.059 49.7164 139.8 50.5288 138.584L50.6765 138.436V143.156L52.7863 135.233L55.4868 131.588V131.44H55.74H57.5755H59.6852C60.8245 131.44 62.1958 131.609 63.9047 131.778L66.4365 132.136L67.4914 131.693L67.8078 130.998V130.26L66.9428 129.502H66.6897L66.5631 129.291H65.8246H65.3605H64.5588H63.9047C62.3435 129.081 60.9511 128.933 59.6852 128.849L58.4826 128.427L57.7232 128.743L58.778 127.774L59.0101 126.952L64.0313 120.041L64.6854 119.535V119.409H64.8753L65.8879 118.503V117.723L67.5757 115.764L68.2509 114.015L68.926 113.088L69.1369 112.435H69.6434V110.327H69.4957C69.4957 110.222 69.4957 110.138 69.4957 110.032V109.737C69.3951 109.527 69.2363 109.35 69.0382 109.227C68.84 109.104 68.6108 109.039 68.3774 109.042H67.8078L67.6391 109.232H67.0062L65.5714 110.18L64.7065 111.929L64.4533 113.319L61.3941 118.419L60.6346 119.219L60.276 120.041L58.5038 122.759H58.3561L58.0818 123.412L55.972 126.32L55.4446 126.742L54.7062 127.816L54.1788 127.964L53.9467 128.596L51.837 128.364L47.3432 128.807H44.7481L43.1869 129.144L41.9422 129.671L41.5623 130.661L41.8999 131.693L43.3346 132.452H44.4106L44.5794 132.578H45.4654L46.7101 132.262L47.1955 132.03L48.9044 131.883H49.3896L51.1407 131.714H52.0057L48.9044 136.266L48.7567 136.582L48.2081 136.793V137.34L46.7735 139.658L45.8452 140.037L45.6975 140.965L45.3389 141.744H45.1489L44.1785 144.083L44.0308 144.547C43.8198 145.052 43.651 145.558 43.4611 146.064L43.018 147.37L42.7228 147.96L42.1953 150.257V150.468L35.866 151.605L35.212 151.437L34.7267 151.669H34.5369L30.8237 152.28H30.5705H30.254H29.832H28.946H28.0177H27.5957L27.3004 152.406H25.6125H24.8741H24.41H22.8698H21.7728H21.0766C19.6029 152.325 18.1366 152.142 16.6882 151.858L13.4814 150.973C13.1737 150.878 12.8767 150.751 12.5953 150.594L10.802 149.519C10.5111 149.254 10.2429 148.965 10.0003 148.655L9.55722 147.918C9.44652 147.609 9.36185 147.292 9.30406 146.97V146.59V145.79L10.8864 144.167H9.6838L9.85262 143.662C9.89562 143.603 9.93104 143.539 9.95808 143.472V143.346C10.0171 143.283 10.0668 143.212 10.1058 143.135L10.4012 142.65L10.2112 141.344L9.43064 141.154H8.6078L8.29142 141.47L6.85679 144.547L6.62462 145.158V145.6L6.47705 146.085V146.253V146.401H6.58251V146.885V147.391V147.792C6.69172 148.335 6.8397 148.87 7.02548 149.393C7.25196 150.015 7.66444 150.552 8.20694 150.931C8.26834 150.99 8.32483 151.053 8.37576 151.121C8.56078 151.391 8.80644 151.615 9.09314 151.774L12.1101 153.544L14.2198 154.302H14.4519C15.0824 154.459 15.7245 154.565 16.3718 154.618H16.8571L17.8697 154.871H18.3549L19.1777 154.724L26.7096 155.419L28.4185 155.103L31.7731 154.787H32.5326H33.3343L34.3258 154.64L35.4018 154.471L35.7183 154.302C36.052 154.267 36.3831 154.21 36.7099 154.134H37.0475H37.9758L39.1573 153.986L41.267 153.46V157.674L42.7228 154.745H43.7354L44.6426 153.839L44.8114 153.101L45.0223 152.701H45.6764L54.3054 150.236L55.9299 149.772H56.626L56.8792 149.562L59.7275 148.592H60.297V149.393L61.9427 147.813L63.7782 147.181L65.0019 146.654L65.6559 146.506L67.3437 145.811L67.9555 145.642L68.1665 145.432L68.4618 145.305H68.8205L69.58 144.989L70.5715 144.821V144.652L71.1623 144.252V144.61L72.829 143.451L74.137 142.756H74.7067L76.6899 141.807L77.998 141.133L78.6099 140.943L79.0106 140.543H79.2216H79.6225L80.4031 140.332L80.5929 140.08L82.4706 138.836L83.5255 138.562L83.7366 138.267L85.5087 137.677L85.7198 137.446H85.9096L88.0193 137.277L87.5974 136.455L88.3147 135.613V135.486V135.086L91.6059 132.642H92.1123L92.8085 132.052V131.799L93.3571 131.483L94.2854 130.408H94.9394V129.755C95.63 128.9 96.2508 127.991 96.796 127.037C97.0703 126.615 97.3445 126.152 97.6398 125.709C97.9812 125.01 98.0991 124.223 97.9775 123.455L98.315 122.001L98.7581 121.495L98.1462 120.61Z" fill="#131826"/>
<path d="M129.497 127.5V126.847C129.522 126.63 129.522 126.411 129.497 126.194V125.941L129.349 125.688L129.054 124.803L128.695 124.677V124.213H128.126L127.113 123.602L126.733 123.455H126.438C126.173 123.452 125.911 123.518 125.678 123.644L125.278 123.876L124.455 125.73L125.826 126.278L126.586 126.91L126.754 127.29L126.628 127.437L125.763 128.196L123.463 129.291C123.299 129.167 123.113 129.074 122.915 129.017L122.514 128.87L121.818 129.228L121.396 129.397L121.016 129.207L120.193 130.05L118.632 130.703L116.902 131.63L116.205 132.262L114.096 133.548L113.611 133.674L112.914 134.117H112.682L112.45 134.39L106.437 137.656L105.425 137.994H104.813L104.454 138.289L103.842 138.478V138.12L104.623 136.919C104.792 136.645 104.982 136.371 105.171 136.097L106.29 134.643H106.606L106.754 134.159L108.21 132.705L109.37 130.893L109.686 129.86L109.539 128.701C109.515 128.476 109.458 128.256 109.37 128.048V127.795L108.463 127.079H107.45L106.796 127.521L106.142 128.259L105.783 128.554L105.446 129.418V129.965L105.34 130.851L104.665 131.63L104.117 131.736V132.473L103.505 133.147L101.395 136.687L101.142 137.256L100.91 137.551L100.635 139.153V139.3C100.615 139.531 100.615 139.764 100.635 139.995V140.29L100.783 140.543V141.26H101.226L101.648 141.892L101.965 141.534L103.42 141.786V144.273L104.939 141.997L105.657 141.534H106.205L110.024 139.426V139.279L113.547 137.34L113.99 136.982L117.619 134.875L119.391 134.011L118.336 135.992L117.703 137.298C117.638 137.431 117.596 137.573 117.577 137.72L117.387 138.415C117.294 138.767 117.294 139.137 117.387 139.49V139.721L118.147 140.775H118.674L119.117 140.922L119.349 140.796H120.214L122.028 140.543H122.408L123.231 140.417L125.932 139.679L126.248 139.995L126.965 139.469H127.514L128.062 139.342L129.286 138.31L128.548 137.193L127.746 136.877L124.834 137.34H124.539L123.21 137.593C122.869 137.664 122.524 137.706 122.176 137.72H122.05H121.606H121.353H120.952L122.619 134.412L123.632 132.894V132.768L124.518 133.632V131.609L125.446 131.377L128.358 129.523L128.189 129.376L128.97 128.491L129.497 127.5Z" fill="#131826"/>
<path d="M163.148 132.663H162.093L158.359 133.674H158.19L156.924 132.915V134.053L151.502 135.697H151.354L151.65 135.275L152.051 135.023L153.169 133.59L153.422 133.822L154.814 130.977H154.013L153.823 130.872C153.642 130.651 153.41 130.478 153.148 130.366L152.768 130.113L151.27 129.86L149.667 130.197L147.557 131.567L141.228 134.791H140.995L140.236 135.36C139.9 135.538 139.555 135.7 139.202 135.844H138.569L137.683 136.434L136.206 137.109H135.742V136.919V136.729L138.443 133.526L138.991 133.232L139.983 132.22L142.388 130.429L142.81 130.176L143.084 130.008L145.932 128.765H148.042L148.738 128.638H148.949C149.243 128.609 149.526 128.515 149.778 128.362C150.03 128.208 150.245 128 150.405 127.753L150.806 127.479V126.32L150.257 125.372V124.972H148.464L147.958 124.803L146.143 125.33L142.303 127.121H141.903L141.333 127.395L140.51 128.491L138.928 129.607L137.746 130.598H137.05V131.609L134.561 133.716L133.864 134.643L133.527 134.896L132.556 136.181H132.366L132.071 137.109C131.642 137.939 131.515 138.892 131.712 139.806C131.794 140.041 131.922 140.257 132.088 140.441C132.255 140.626 132.457 140.775 132.683 140.88V141.744L132.978 141.007C133.244 141.042 133.514 141.042 133.78 141.007H134.054H134.539L136.924 140.227L137.24 140.059H137.43L138.274 139.848H139.519V139.405L140.869 138.689L141.27 138.562L142.008 138.057L147.536 135.191L149.076 134.264H149.223L147.599 136.371L147.261 137.151C147.165 137.51 147.165 137.888 147.261 138.246V138.71L147.852 139.49L148.485 139.785L149.941 139.911L150.173 140.354L151.186 139.532L152.388 139.068L153.696 140.29V138.499L156.249 137.34L158.127 136.687L160.089 135.823L160.722 135.676H160.954L161.608 135.36L162.114 135.233H162.705L163.654 134.517L163.148 132.663Z" fill="#131826"/>
<path d="M244.922 272.784H243.277L242.812 272.279L240.513 273.29L239.395 274.723L238.445 275.587L236.757 279.569L235.049 281.803L234.437 282.477L232.221 282.624L233.403 283.804L233.086 284.12L233.234 284.521L232.686 284.963L232.306 285.49L232.032 286.48L227.496 293.139L227.2 293.834L226.63 294.698L225.449 295.962L225.618 296.131L225.027 296.953L224.268 297.5L222.854 299.608L222.622 300.24L221.546 301.841L220.555 303.948C220.225 304.335 219.955 304.768 219.753 305.234L218.719 307.341C217.774 309.172 216.922 311.05 216.166 312.967V313.156C215.914 313.276 215.701 313.466 215.554 313.704L214.499 316.464L213.381 319.73L215.343 321.121L215.892 320.025L216.335 319.288V318.972C216.359 318.813 216.402 318.657 216.462 318.508L217.116 317.686L218.466 314.8V314.652L219.479 314.083L218.993 313.556L219.626 312.145V311.829C219.626 311.702 219.774 311.576 219.837 311.428H221.736L220.533 310.227L221.398 309.068L222.77 306.434L225.407 302.22L225.681 302.073L227.053 300.198L227.432 300.008V299.439L229.141 297.648H228.951L229.162 297.395L229.69 296.236L230.386 295.436L231.145 294.234L231.462 293.476L232.96 291.495L233.255 291.348L233.825 290.231L235.344 288.271L235.766 287.913L235.956 287.45L236.209 287.913V286.881L236.694 286.228L236.905 285.827H237.264L237.58 285.511L238.023 285.258L238.488 284.331L238.994 283.678L239.099 282.498L242.475 278.115L242.812 277.483L243.382 277.336H244.521L244.669 276.872L245.977 274.765L245.639 273.606L244.922 272.784Z" fill="#131826"/>
<path d="M280.24 301.42L281.59 300.598L282.096 300.092V299.123L281.041 297.838L277.581 300.345L276.97 300.661L276.4 300.809L276.083 301.209L273.278 303.105L271.168 304.159H270.788L270.64 304.327H270.429C270.419 304.286 270.419 304.243 270.429 304.201L270.703 303.527L270.957 303.169V302.832L271.779 301.314V300.977L271.906 300.493C272.118 300.087 272.294 299.664 272.434 299.228L272.56 298.891C272.813 298.28 273.066 297.627 273.404 296.995L273.763 296.278L273.953 295.309L273.636 294.403L272.855 293.919C272.703 293.738 272.507 293.6 272.286 293.518C271.231 293.099 270.069 293.033 268.974 293.329L267.075 293.771L266.315 294.277H265.915L264.627 295.541C264.079 295.878 263.53 296.236 263.087 296.573L261.505 297.437L260.788 298.133L259.311 299.228L258.425 299.692L257.454 300.535L255.788 301.567L254.754 302.199L253.931 302.958L254.922 300.535L255.155 299.755L255.788 298.512V298.259L256.273 297.395C256.716 296.616 257.222 295.857 257.644 295.288L258.045 294.804V294.551C258.53 293.876 258.973 293.202 259.374 292.444L261.674 289.072L263.362 286.797L264.839 284.984V284.626L265.956 283.278L267.666 280.833L267.792 280.454L269.48 278.136L270.261 277.42L271.315 275.692L273.278 272.784L275.514 270.677L276.737 269.055L277.771 266.611L277.455 265.325L277.265 265.136H278.088L279.501 264.988L282.539 265.262L283.721 265.957L283.911 265.367L285.62 265.578L286.907 266.063L287.94 265.915L290.05 266.273L291.421 266.526L292.075 266.716L292.265 266.906H292.962L293.088 267.032H293.51C293.51 267.032 293.784 267.032 293.763 267.032L294.164 267.285L299.565 269.055L300.114 269.35L300.683 269.834L302.793 270.108L302.498 268.001L301.633 267.327C301.504 267.126 301.321 266.965 301.105 266.863L299.903 265.789H299.354H298.974L298.278 265.662L297.73 265.515C296.865 265.157 295.979 264.798 295.05 264.503V264.335L294.101 264.061H293.784L292.16 263.745L291.316 263.597L291.168 263.45H290.071L288.805 263.134H288.426L287.476 262.965L287.202 262.691H286.358L283.193 262.207H282.835L278.468 261.743L278.003 261.28L277.349 261.659H276.526L275.493 261.364H275.113L273.446 261.09L272.265 261.238L271.695 261.111H268.467L267.644 260.374L267.243 261.174H265.577L264.712 260.942L262.792 261.111H260.556L260.092 260.964H259.226L258.973 261.09L253.614 261.469C253.425 261.469 253.277 261.469 253.34 261.469L252.412 261.343L251.167 261.554L248.382 262.249H248.256H247.285L245.893 262.523L244.099 262.08L243.931 262.712C243.671 262.734 243.41 262.734 243.15 262.712H240.428L239.31 262.944H238.129L236.483 263.176L235.281 263.555H234.88L232.2 263.913L224.858 265.367C224.225 265.515 223.508 265.641 222.749 265.789L221.145 266.105H220.09L217.98 266.674L217.664 266.463L217.179 266.632H217.073L215.175 266.821V267.032H214.605V267.348L214.035 267.643L213.381 267.791L212.727 268.17L211.757 268.465H211.229L210.575 268.865L208.634 269.497L208.212 269.708L207.685 269.919H206.757L205.681 270.256L204.963 270.972L204.415 271.141L203.845 270.825L203.655 271.014L203.486 270.846L202.748 271.373L201.039 270.382L201.461 272.152L199.858 273.838L199.605 274.259H199.225L199.077 275.776C199.036 275.985 199.036 276.2 199.077 276.408V277.778L201.039 278.811L203.149 276.999L203.761 276.893L203.972 276.682L204.478 276.472L205.195 275.566C205.516 275.384 205.814 275.165 206.082 274.913L206.567 274.512L206.925 274.386L207.98 273.838C208.6 273.541 209.199 273.203 209.774 272.827L210.85 272.321C211.406 272.039 211.976 271.786 212.559 271.562L214.035 271.12L216.44 270.719H217.01L217.411 270.235C218.323 270.01 219.219 269.721 220.09 269.371L222.2 268.865L222.559 268.992H223.044H223.213L224.247 268.76L225.154 268.338H225.977L228.973 267.643H230.049V267.517L231.082 267.327L233.192 267.053L234.352 266.758L236.631 266.484L236.863 266.316L238.276 266.168L239.943 265.789H240.344H240.66L241.779 265.662L242.559 265.388L244.163 265.157H245.175L246.378 264.904C246.588 264.928 246.801 264.928 247.011 264.904L248.319 264.799L248.91 265.03L249.332 264.883H249.69H250.091H250.344L251.146 264.714H251.589H251.863L252.538 264.904L253.235 264.714H253.636L257.201 264.567L256.779 264.672H262.243L262.982 264.925H263.952H264.923L266.104 264.693H267.876L268.13 264.503L268.573 264.799L268.889 264.461H269.269H270.092H270.872H271.463H272.581H273.088L274.67 264.609L274.058 265.283V265.473L273.193 266.337L272.813 266.842L271.737 267.432L271.463 268.212V268.36L271.168 269.034V268.57L269.627 271.794L268.151 273.901L266.653 276.577L266.062 277.294L265.324 278.769L264.965 279.358L264.142 280.033V280.433L263.805 281.128L263.509 281.36L262.897 282.414C261.941 283.706 261.013 284.991 260.113 286.27L259.901 286.417L258.804 288.187C258.53 288.566 258.277 288.925 258.003 289.388L257.391 290.02L254.838 293.961H254.585L253.889 295.499L253.087 296.489L252.264 297.753L251.863 298.512L251.61 299.334L251.252 299.839L250.914 300.956L250.323 302.579L249.669 303.759L249.184 305.255L249.057 306.119L249.268 307.067L250.049 307.846H251.273L251.505 307.615L252.686 307.467L253.952 306.793L255.218 307.067V306.076L256.99 304.875L260.007 302.347L260.619 301.778L261.188 301.673L261.843 300.893H262.138L262.454 300.451L265.071 298.912L265.408 298.66C265.516 298.566 265.637 298.487 265.767 298.428L267.011 297.88L269.902 296.173C269.902 296.321 269.733 296.51 269.607 296.742L269.311 297.753C269.311 298.048 269.079 298.364 268.952 298.68C268.826 298.997 268.573 299.65 268.446 300.092L268.151 300.661L267.961 301.462L267.497 302.01V302.263L267.033 302.621L266.716 303.232V303.759L266.547 306.35L268.889 309.848V308.183C269.275 308.231 269.667 308.181 270.028 308.036L270.725 307.91L271.632 307.53H271.822L273.362 306.35L274.522 305.866L276.463 304.517L277.792 303.358C278.459 302.902 279.1 302.409 279.712 301.883L280.24 301.42Z" fill="#131826"/>
<path d="M311.296 299.481H311.528L312.667 298.744C313.047 298.554 313.448 298.322 313.722 298.154H314.249L314.566 297.711L315.642 296.868L316.591 297.838V296.531L317.435 296.215L316.781 294.234L315.515 293.918L315.241 294.129H314.882L314.608 294.34L313.722 294.951L310.536 296.784L310.325 296.974L309.207 297.142V297.5L306.443 298.617C305.684 298.954 305.114 299.249 304.587 299.523C304.059 299.797 303.173 300.219 302.182 300.64L296.316 302.747L295.388 303.19L293.405 303.843L292.878 304.096L289.228 304.896L288.046 305.002L287.371 304.833L286.59 304.601L285.789 305.297L286.147 304.791L286.422 304.58V303.169L286.612 302.768L287.097 302.22V301.862L287.751 301.083L287.941 301.546L288.827 301.989H290.43L292.013 301.673L294.333 300.745L295.051 300.261L296.548 299.544L296.928 299.292C298.099 298.691 299.233 298.023 300.325 297.29L302.857 295.962L303.891 295.309L304.566 294.656L305.135 293.792L305.452 292.759L305.684 291.579L307.013 290.084H305.346C305.168 289.874 304.962 289.69 304.734 289.536L305.072 288.819H303.384L302.962 288.672H302.836L302.498 288.84H301.781L301.464 288.63L300.979 288.798H300.219L299.629 289.135C299.125 289.268 298.631 289.437 298.152 289.641L297.287 289.789L295.958 290.526L295.346 290.758L294.587 291.306C293.397 292.012 292.249 292.786 291.148 293.623L290.283 293.982L289.945 294.361H289.671L288.721 295.351L288.447 295.731L287.181 296.721L286.717 296.932L286.548 297.121L285.915 297.458L284.164 300.113L283.806 300.935L283.447 301.546L282.983 303.084V304.791L283.215 305.887L283.468 306.561L283.995 307.362L278.953 308.415H285.641L287.413 308.752L287.899 308.563H288.109L289.417 308.31L289.945 308.204L290.072 308.078C290.651 307.989 291.222 307.855 291.78 307.678L295.409 306.729L297.941 305.507C298.553 305.276 299.165 305.044 299.798 304.77L300.874 304.433L301.042 304.707L301.928 304.032L304.523 302.768L304.819 302.557L305.958 301.989L308.553 300.83L311.296 299.481ZM293.743 295.625L294.903 294.677L296.295 294.003H296.527L296.949 293.645L298.11 292.949C299.038 292.482 300.005 292.094 301 291.79H301.95H302.139V291.98L299.017 294.888L298.025 295.225L297.899 295.457L297.371 295.667L297.182 295.878L295.346 296.889L292.941 297.795H292.097L291.464 297.627H291.063L292.477 296.299L293.215 295.731L293.743 295.625Z" fill="#131826"/>
<path d="M301.822 279.675L301.443 279.885L301.063 280.201C300.665 280.335 300.277 280.497 299.903 280.686L298.574 281.023L297.835 281.55L296.316 282.245L295.071 281.824L294.08 282.54H293.911L293.088 283.362V283.72L292.729 284.057V285.638L293.299 285.827L293.763 286.396L295.071 286.523V286.375L296.928 288.988L296.084 285.68L296.422 285.553L296.569 285.216L297.139 285.027H297.582L297.941 284.774H298.215L298.51 284.5L303.974 282.751H304.249H304.46L304.924 282.54H305.916L306.675 283.636H303.51L309.608 285.743H310.24H315.874L311.021 284.057L310.684 283.531H310.409L309.987 283.13H309.776L309.397 282.814L309.249 282.646L308.637 281.613L308.405 281.255L307.983 280.496L306.97 279.696L306.042 279.316H303.468H302.814L302.097 279.569L301.822 279.675Z" fill="#131826"/>
<path d="M311.063 280.897H311.295L311.612 281.402L312.182 281.107C312.463 281.106 312.733 281.001 312.941 280.812L315.431 279.653H316.042L316.802 279.021C317.309 278.831 317.832 278.683 318.363 278.579C318.87 278.493 319.37 278.374 319.861 278.221L321.085 277.926L323.194 277.61H323.638L323.785 277.778H325.136L325.579 277.23L325.958 277.104H326.359L326.844 277.251L327.773 276.935L329.081 276.219L329.566 276.093V276.598L331.212 275.481L332.836 274.217L331.929 273.922L331.718 273.311L330.959 272.321L329.228 271.984L327.646 272.658L326.38 273.459L323.173 274.365L320.832 275.081H320.452L320.114 275.292L318.005 275.924L317.013 276.135L316.697 276.408C316.486 276.434 316.284 276.506 316.106 276.619C314.728 277.177 313.383 277.81 312.076 278.516L311.359 278.642L310.874 279.885L311.084 280.307L311.063 280.897Z" fill="#131826"/>
<path d="M373.365 299.144L373.154 297.88L372.184 297.269L370.39 297.585L368.618 297.838L367.88 298.133V297.838L366.466 298.554L364.989 298.828L364.04 299.271C363.449 299.46 362.901 299.671 362.352 299.903L360.938 300.535L359.546 300.935L358.618 301.483L359.715 298.828L360.432 297.669L360.896 296.742L361.719 295.604L361.993 294.34V293.539L361.339 292.907L360.643 292.654L359.272 292.76C359.325 292.269 359.325 291.775 359.272 291.285C359.235 290.963 359.086 290.664 358.85 290.442C358.709 290.18 358.524 289.944 358.301 289.746C357.942 289.523 357.539 289.379 357.12 289.325H356.74C355.491 289.516 354.284 289.922 353.175 290.526H352.415L347.183 293.75L345.748 294.825H345.432L343.955 295.941H343.786L339.377 300.155L339.081 300.556H338.807L338.575 301.23L337.773 302.305L337.52 304.243L337.837 304.875L338.09 305.213C338.195 305.455 338.373 305.659 338.6 305.795C338.828 305.931 339.092 305.993 339.356 305.971C340.392 305.947 341.414 305.733 342.373 305.339L344.482 305.002L345.115 304.707L345.263 304.264L345.748 303.78L347.858 302.558L349.968 301.588L351.719 300.345L352.689 299.924L354.251 298.912H354.672L354.883 298.617L356.002 297.88L356.761 297.5L357.225 297.079L354.504 302.389C354.504 302.579 354.314 302.747 354.251 302.874L353.217 304.264L351.951 304.77L351.065 305.423H350.537L349.841 305.887V306.14L346.761 308.247L346.044 308.478L345.812 308.879C344.714 309.595 343.702 310.354 342.541 311.133L341.001 312.018L340.178 312.84L339.503 313.072L336.739 315.327C336.589 315.418 336.448 315.524 336.318 315.643L335.663 315.938L335.284 316.443C334.355 317.181 333.343 318.066 332.246 319.014L331.254 319.204V319.962L330.199 320.931L329.208 321.669L327.098 323.776L326.676 324.45L325.536 325.63L324.207 326.494L324.081 326.831L323.659 327.316C322.794 328.369 322.055 329.233 321.423 329.908L320.79 330.561L320.136 331.024L319.524 331.635L319.039 332.415L318.574 332.815L318.005 333.679C317.768 333.968 317.55 334.27 317.351 334.585L315.241 337.177L313.638 339.558L312.836 340.275L312.393 340.822L311.57 342.466L311.359 343.182L311.148 343.435L311.021 344.067C310.473 345.121 309.967 346.174 309.545 347.165L308.638 348.555L308.258 350.241V350.684L308.089 351.042L307.857 352.58L307.54 352.98V354.54C307.436 355.203 307.436 355.878 307.54 356.541V356.899C307.765 357.639 308.188 358.302 308.764 358.817L308.954 359.217L311.064 359.828L312.308 359.512C313.453 359.163 314.51 358.574 315.41 357.785L315.621 357.616H315.916L317.161 355.698L317.435 355.53L317.583 355.319C317.991 354.683 318.489 354.108 319.06 353.612C319.55 353.139 320.015 352.64 320.452 352.116L321.296 350.936L322.161 350.199L322.351 350.009C322.717 349.53 323.118 349.079 323.553 348.661C324.03 348.186 324.474 347.679 324.883 347.144C325.157 346.785 325.452 346.427 325.769 346.09C326.58 345.212 327.288 344.243 327.879 343.203L331.381 338.694C332.161 337.746 332.921 336.819 333.659 335.871L342.71 324.155H342.984L343.153 323.607L345.263 320.805L346.845 318.698L347.225 318.213L347.584 317.708L353.491 309.448L354.208 308.5L355.39 307.867L355.137 307.151L355.601 306.54L358.618 304.917C359.398 304.517 360.031 304.18 360.854 303.801L361.867 303.485L362.605 303.127L363.554 302.895L365.221 301.989L369.441 300.83H370.221L370.791 300.724L370.981 300.893L371.698 300.472L372.437 300.282L373.365 299.144ZM354.736 293.328L354.124 294.298V294.635L353.512 294.846L352.963 295.162V295.372L352.71 295.499H352.457L351.276 296.426L350.875 296.616L349.63 297.648L348.892 298.133L348.322 298.259L348.153 298.533L347.731 298.723L347.499 299.018L345.221 300.514L344.377 300.914L343.976 301.314C343.78 301.46 343.576 301.594 343.364 301.715L343.005 301.925L342.499 302.115L341.782 302.6L342.288 301.989L343.005 301.061L344.862 299.376L348.09 297.079L348.385 296.784L350.812 295.183C350.961 295.065 351.124 294.966 351.297 294.888L352.921 294.213L354.82 292.991L355.495 292.717L354.736 293.328ZM338.702 301.019L339.356 301.841L338.554 301.209C338.554 301.209 338.681 301.019 338.702 301.019ZM348.259 311.365L345.6 315.053L344.693 316.043L343.828 317.391C343.195 318.213 342.626 319.056 342.077 319.836L341.465 320.657H341.212L340.917 321.226L340.073 322.28L337.963 325.483L335.052 328.917C334.398 329.823 333.701 330.729 332.942 331.53C332.098 332.419 331.323 333.37 330.621 334.375L327.71 338.083C327.077 338.863 326.423 339.685 325.748 340.464C324.036 342.977 322.086 345.32 319.925 347.46C319.386 347.956 318.885 348.491 318.427 349.061C317.512 350.114 316.462 351.042 315.304 351.821L314.502 352.454L313.11 353.254L312.435 353.929L311.612 354.497C311.225 354.74 310.824 354.958 310.41 355.151C310.41 354.708 310.41 354.181 310.41 353.507V353.36L310.789 352.58L311.021 351.105C311.929 348.998 312.92 346.891 313.954 344.784L314.629 343.414C314.946 342.782 315.241 342.171 315.515 341.707L316.359 340.464L317.14 339.79L317.456 338.884C317.878 338.294 318.448 337.641 319.144 336.777L323.617 331.593L324.355 330.54L326.148 328.664L326.992 327.653L327.309 327.485L327.963 326.705C329.482 325.146 331.064 323.692 332.858 322.048L333.385 321.753L334.102 320.974C336.043 319.267 338.195 317.497 340.432 315.706H340.621L343.512 313.409H343.997L345.79 311.934L346.276 311.829L346.465 311.555L346.951 311.365L347.098 311.049L348.849 309.911L349.103 309.806L348.259 311.365Z" fill="#131826"/>
<path d="M386.53 281.17L385.707 282.814L385.791 283.13L385.454 283.594L384.884 284.205L385.222 286.86L386.635 285.975L387.69 285.195V285.005L388.428 284.689L388.829 283.91L389.315 283.783L389.526 283.446L389.99 282.983L391.994 282.414V281.95L393.133 280.117L392.964 279.696L393.26 278.558L392.374 278.199L392.521 278.031H392.036L391.382 277.378L384.631 280.138H387.458L386.53 281.17Z" fill="#131826"/>
<path d="M396.403 299.945L396.783 299.376L397.036 299.249L397.901 298.238L397.606 297.648L397.121 296.89L396.678 296.763H395.559L395.306 297.269L394.357 297.859L388.745 301.083L388.175 301.567L385.58 302.937L385.432 303.127L384.947 303.379H384.23L383.998 303.843L382.626 304.496L380.517 305.149L379.019 305.971H378.787L378.386 306.098L377.289 306.329L376.993 306.182L376.213 306.371L377.268 303.127L377.563 302.768L378.913 300.661L380.517 298.744L381.825 297.185L382.458 296.616V296.3L383.892 294.719H384.209L385.39 293.539L385.897 292.781L386.15 291.664V290.863L385.137 290.147L384.314 290.042L383.513 290.168C383.019 290.209 382.559 290.435 382.225 290.8L380.939 291.79L380.221 292.76V293.118L378.998 294.782L378.597 295.752L377.774 297.142L376.403 298.428L375.285 300.535C375.179 300.703 375.074 300.83 374.989 300.977L374.103 302.01L373.66 302.81L372.795 305.213V305.592C372.624 306.086 372.567 306.611 372.626 307.13L372.5 307.825L373.027 308.331C373.457 308.924 374.086 309.342 374.799 309.511L376.023 309.764L376.656 309.595H377.479L378.217 309.49L379.103 309.09L379.968 308.921L380.833 308.563L383.892 306.919L387.226 305.381L388.428 304.538L389.167 304.307L389.61 303.864C390.432 303.379 391.298 302.789 392.226 302.157L392.88 301.904L393.956 301.062L396.066 299.882L396.403 299.945Z" fill="#131826"/>
<path d="M420.708 290.779L420.539 290.126C420.499 289.938 420.443 289.755 420.37 289.578V289.388L420.117 289.093L419.695 287.997H418.914L418.619 287.618L417.1 287.112C416.873 287.062 416.636 287.068 416.412 287.13C416.187 287.193 415.981 287.31 415.813 287.471L415.454 287.766L414.948 289.873L416.446 290.084H416.678L417.522 290.652L417.923 291.179L417.733 291.537L416.425 292.97L415.771 293.413L414.864 294.066L414.379 294.34L412.712 292.991H412.48C412.121 292.844 411.699 292.654 411.277 292.528L410.075 292.022L409.041 291.769H408.112H407.606C406.844 291.662 406.076 291.598 405.306 291.58L404.041 291.2L402.775 291.39L401.846 291.727L401.235 292.612L400.981 293.792L401.319 294.361L401.952 294.888L403.049 295.225H404.378L403.387 296.131L402.226 296.974L401.931 296.468L401.002 297.817L400.56 297.985L398.703 299.481L397.838 300.472L396.973 301.083L395.749 302.22L394.483 304.96L394.969 306.708H395.095C395.454 307.066 395.867 307.364 396.319 307.594L396.72 307.825L397.036 307.931L397.69 308.078H397.943L400.876 308.331L401.488 308.141L401.678 307.888L401.846 307.741C402.353 307.594 402.859 307.404 403.408 307.193L403.872 307.003L405.454 306.708L406.045 306.308L406.53 306.034L406.72 305.823L407.965 305.423V305.065L409.083 304.749V304.391C409.992 303.838 410.853 303.211 411.657 302.515L412.332 302.031L413.218 301.083L413.598 300.851L414.547 299.523L414.674 299.27C414.69 299.13 414.69 298.989 414.674 298.849L414.843 298.512C414.956 298.226 415.041 297.929 415.096 297.627V297.016L415.834 296.51L416.551 296.152L417.395 295.372H417.838L417.986 294.972L418.767 294.403L418.935 294.087C419.072 293.934 419.199 293.772 419.315 293.602L420.244 292.148L420.708 290.779ZM409.399 300.303C409.02 300.64 408.619 300.977 408.26 301.251L406.615 302.389L405.349 302.979L404.8 303.442L403.977 303.674L403.851 303.906C402.473 304.557 400.998 304.977 399.484 305.149H398.766H398.64L398.83 304.18C398.924 303.994 399.037 303.817 399.167 303.653L400.77 301.673L405.707 298.428L407.691 297.269L408.429 296.658L409.568 295.857C409.765 295.727 409.956 295.586 410.138 295.436L411.214 295.92L411.699 296.215L411.952 296.51L411.783 297.1V297.606C411.65 297.871 411.495 298.125 411.319 298.364L410.771 299.018H410.581L409.399 300.303Z" fill="#131826"/>
<path d="M404.505 287.408H404.716L405.033 287.913L405.623 287.618C405.899 287.593 406.162 287.491 406.383 287.323L408.851 286.164H409.484L410.244 285.532C410.746 285.328 411.27 285.18 411.805 285.09C412.121 285.09 412.522 284.942 413.282 284.732L414.505 284.416L416.615 284.121H417.058L417.206 284.268H418.556L418.873 283.868L419.4 283.594H419.78L420.265 283.762L421.193 283.446L422.501 282.709L423.008 282.582V283.067L424.632 281.992L426.278 280.77L425.371 280.454L425.16 279.822L424.4 278.811L422.67 278.495L421.088 279.148L419.822 279.949L416.636 280.855L414.316 281.592H413.915L413.577 281.803L411.467 282.435L410.476 282.667L410.18 282.941C409.97 282.949 409.766 283.015 409.59 283.13C408.203 283.69 406.851 284.331 405.539 285.048H404.843L404.336 286.291L404.547 286.712L404.505 287.408Z" fill="#131826"/>
<path d="M433.873 281.17L433.05 282.814L433.134 283.13L432.797 283.594L432.227 284.205L432.565 286.86L433.957 285.975L435.012 285.195V285.005L435.772 284.689L436.173 283.91L436.658 283.762L436.995 283.214L437.333 282.983L439.337 282.414V281.95L440.476 280.117L440.308 279.696L440.603 278.558L439.696 278.199L439.865 278.031H439.379L438.725 277.378L431.974 280.138H434.801L433.873 281.17Z" fill="#131826"/>
<path d="M444.949 297.648L444.443 296.89L444.021 296.763H442.902L442.649 297.269L441.7 297.859L436.151 301.02L435.561 301.504L432.987 302.874L432.839 303.063L432.354 303.316H431.636L431.404 303.78L430.033 304.433L427.923 305.086L426.404 305.908H426.193L425.792 306.034L424.695 306.266L424.4 306.119L423.619 306.308L424.674 303.063L424.969 302.705L426.32 300.598L427.902 298.681L429.231 297.121L429.864 296.553V296.236L431.278 294.656H431.615L432.797 293.476L433.303 292.718L433.556 291.601V290.8L432.544 290.084L431.721 289.978L430.919 290.105C430.426 290.146 429.966 290.372 429.632 290.737L428.324 291.727L427.628 292.697V293.055L426.404 294.719L426.003 295.689L425.181 297.079L423.809 298.365L422.691 300.472L422.396 300.914L421.51 301.947L421.066 302.747L420.181 305.149V305.529C420.026 306.026 419.975 306.549 420.033 307.067L419.906 307.762L420.413 308.268C420.851 308.862 421.486 309.28 422.206 309.448L423.429 309.701L424.062 309.532H424.885L425.624 309.427L426.51 309.026L427.375 308.858L428.24 308.5L431.299 306.856L434.611 305.318L435.835 304.475L436.573 304.243L437.016 303.801C437.839 303.316 438.704 302.726 439.632 302.094L440.286 301.841L441.362 300.998L443.472 299.818H443.81L444.19 299.25L444.422 299.123L445.308 298.112L444.949 297.648Z" fill="#131826"/>
<path d="M71.7742 369.247L67.5547 345.037H70.8038L74.2005 365.328L84.7493 345.037H88.3992L75.382 369.247H71.7742Z" fill="#0FB05A"/>
<path d="M111.079 348.092H100.003L98.6736 355.509H108.885L108.336 358.522H98.1251L96.7748 366.192H108.02L107.513 369.247H93.0405L97.2601 345.036H111.543L111.079 348.092ZM105.404 340.211L102.935 342.845H99.8973L104.117 338.483H107.197L109.855 342.845H107.028L105.404 340.211ZM109.265 339.663L106.712 335.449H110.045L111.965 339.663H109.265Z" fill="#0FB05A"/>
<path d="M87.6816 74.1486L77.4914 45.5553L72.449 53.9837V74.1275H63.0605V13.4012H72.449V38.6863L86.0359 13.4012H96.1418L83.3144 35.5467L98.0827 74.1486H87.6816ZM133.105 74.1486V47.3254H119.792V74.0855H110.383V13.4012H119.792V38.6863H133.105V13.4012H142.578V74.1486H133.105ZM183.612 74.1486L181.081 60.9372H168.021L165.658 74.1486H156.46L168.211 13.4012H181.081L193.36 74.1486H183.612ZM174.393 25.0534L169.583 52.277H179.435L174.393 25.0534ZM176.629 8.55479H170.3L174.393 0.463623H183.254L176.629 8.55479ZM223.74 22.0824V74.1486H214.352V22.0402H202.6V13.4012H235.597V22.0402L223.74 22.0824ZM298.869 74.1486H287.202L274.163 13.4012H283.826L293.046 59.5676L301.063 13.4012H310.536L298.869 74.1486ZM356.149 54.8477C356.159 57.3647 355.983 59.879 355.621 62.37C355.225 64.852 354.233 67.2014 352.731 69.2181C351.292 71.2755 349.262 72.8479 346.908 73.7273C342.19 75.4678 337.005 75.4678 332.288 73.7273C329.942 72.8342 327.915 71.2646 326.465 69.2181C324.912 67.2265 323.901 64.8673 323.532 62.37C323.173 59.8786 322.989 57.3649 322.983 54.8477V32.7021C322.977 30.1969 323.174 27.6952 323.574 25.222C323.99 22.7648 324.98 20.4402 326.465 18.4371C327.881 16.3611 329.898 14.7661 332.245 13.8647C334.587 12.9624 337.077 12.505 339.587 12.5161C342.092 12.4913 344.577 12.9492 346.908 13.8647C349.242 14.81 351.261 16.3951 352.731 18.4371C354.267 20.4101 355.263 22.7483 355.621 25.222C355.975 27.6997 356.151 30.1994 356.149 32.7021V54.8477ZM346.803 32.8707C346.803 31.4801 346.803 30.0894 346.697 28.6565C346.622 27.2457 346.248 25.8667 345.6 24.6108C345.018 23.5503 344.128 22.6908 343.047 22.1456C341.975 21.602 340.789 21.3203 339.587 21.3238C338.107 21.2111 336.629 21.5729 335.368 22.3564C334.414 23.0459 333.681 23.9976 333.258 25.0956C332.782 26.2856 332.504 27.5454 332.435 28.825C332.33 30.1946 332.288 31.5433 332.288 32.8707V54.6791C332.288 56.0066 332.287 57.3551 332.435 58.7247C332.499 60.005 332.778 61.2656 333.258 62.4543C333.675 63.5553 334.409 64.5084 335.368 65.1935C336.629 65.8703 338.039 66.2246 339.471 66.2246C340.903 66.2246 342.313 65.8703 343.575 65.1935C344.537 64.5121 345.272 63.5578 345.685 62.4543C346.146 61.2599 346.424 60.0023 346.507 58.7247C346.613 57.3551 346.655 56.0066 346.655 54.6791L346.803 32.8707ZM335.621 87.6552V79.5428H343.554V87.6552H335.621ZM396.91 74.2119L380.622 33.7979V74.2119H371.656V13.4012H381.15L396.382 51.2025V13.4012H405.328V74.1486L396.91 74.2119ZM449.19 74.2119L447.46 69.0073C446.178 70.871 444.518 72.4435 442.586 73.6218C440.58 74.6746 438.332 75.1832 436.067 75.0968C433.505 75.1311 430.975 74.5301 428.704 73.3479C426.461 72.1411 424.632 70.292 423.45 68.0381C422.125 65.5845 421.341 62.8758 421.151 60.0943C420.94 57.2919 420.834 54.5316 420.834 51.7924V34.9356C420.834 33.4185 420.834 31.9436 420.834 30.4897C420.862 29.0787 420.982 27.671 421.193 26.2755C421.394 24.8394 421.74 23.4274 422.227 22.0613C422.746 20.6577 423.456 19.3319 424.337 18.1211C425.814 16.2051 427.803 14.7444 430.075 13.9069C432.354 13.0457 434.77 12.6031 437.206 12.6005C439.749 12.5432 442.274 13.0318 444.611 14.0333C446.614 14.9339 448.377 16.2906 449.759 17.9947C451.135 19.7636 452.14 21.7917 452.713 23.9576C453.381 26.3871 453.708 28.8976 453.683 31.4168V33.2289H444.274C444.274 31.9646 444.274 30.6372 444.105 29.2676C443.993 27.9585 443.687 26.6733 443.198 25.4537C442.753 24.3213 442.027 23.3206 441.088 22.5459C439.98 21.7316 438.622 21.3293 437.248 21.4081C435.827 21.3158 434.418 21.7178 433.261 22.5459C432.304 23.2863 431.573 24.2787 431.151 25.4115C430.673 26.6303 430.395 27.9181 430.328 29.2254C430.328 30.6161 430.181 31.9646 430.181 33.2289V51.8135C430.181 53.162 430.181 54.6581 430.181 56.3438C430.24 57.9437 430.503 59.5296 430.961 61.0637C431.355 62.4639 432.078 63.7498 433.071 64.8142C433.656 65.3451 434.343 65.7515 435.09 66.0087C435.837 66.2659 436.629 66.3685 437.417 66.3103C438.185 66.361 438.956 66.2544 439.681 65.9971C440.407 65.7399 441.072 65.3374 441.637 64.8142C442.667 63.7783 443.397 62.4819 443.746 61.0637C444.152 59.5221 444.372 57.9375 444.4 56.3438C444.4 54.6581 444.4 53.162 444.4 51.8135H436.615V44.0805H453.747V74.233L449.19 74.2119Z" fill="#131826"/>
<path d="M97.9776 74.1696L83.3148 35.5677L96.1421 13.4221H86.0364L72.4495 38.623V13.4221H63.061V74.1696H72.4495V54.0258L77.4918 45.5764L87.682 74.1696H97.9776Z" stroke="#131826" stroke-width="0.45" stroke-miterlimit="10"/>
<path d="M142.578 74.1696V13.4221H133.084V38.7072H119.771V13.4221H110.383V74.1696H119.771V47.3885H133.084V74.1696H142.578Z" stroke="#131826" stroke-width="0.45" stroke-miterlimit="10"/>
<path d="M179.372 52.277H169.541L174.351 25.0534L179.372 52.277ZM193.233 74.1487L180.87 13.4013H168.001L156.333 74.1487H165.553L167.916 60.9373H180.954L183.507 74.1487H193.233ZM183.128 0.400391H174.266L170.047 8.49169H176.376L183.128 0.400391Z" stroke="#131826" stroke-width="0.45" stroke-miterlimit="10"/>
<path d="M235.513 22.0823V13.4221H202.516V22.0823H214.267V74.1696H223.677V22.0823H235.513Z" stroke="#131826" stroke-width="0.45" stroke-miterlimit="10"/>
<path d="M310.473 13.4221H300.979L292.962 59.5675L283.742 13.4221H274.08L287.118 74.1696H298.806L310.473 13.4221Z" stroke="#131826" stroke-width="0.45" stroke-miterlimit="10"/>
<path d="M156.966 411.389H144.118L129.75 344.426H140.299L150.447 395.27L159.372 344.426H169.92L156.966 411.389ZM176.672 411.389V344.426H187.009V411.326L176.672 411.389ZM197.263 411.389V344.426H227.559V353.971H207.601V371.607H222.369V381.152H207.601V401.781H227.559V411.326L197.263 411.389ZM253.593 354.034V411.389H243.256V354.034H230.302V344.426H266.653V353.971L253.593 354.034ZM325.325 411.389L307.456 366.866V411.389H297.603V344.426H308.152L325.03 386.062V344.426H334.883V411.326L325.325 411.389ZM372.331 411.389L369.525 396.85H355.158L352.563 411.389H342.414L355.263 344.489H369.441L382.964 411.389H372.331ZM362.183 357.321L356.888 387.305H367.711L362.183 357.321ZM428.999 411.389V362.209L417.164 411.389H411.425L399.906 362.209V411.389H390.053V344.426H405.201L414.463 386.441L423.788 344.426H438.746V411.326L428.999 411.389Z" fill="#131826"/>
<path d="M169.815 344.489H159.372L150.532 395.333L140.384 344.489H129.75L144.118 411.41H156.966L169.815 344.489Z" stroke="#131826" stroke-width="0.56" stroke-miterlimit="10"/>
<path d="M186.967 344.489H176.629V411.389H186.967V344.489Z" stroke="#131826" stroke-width="0.56" stroke-miterlimit="10"/>
<path d="M227.475 411.41V401.844H207.517V381.236H222.285V371.691H207.517V354.055H227.475V344.489H197.179V411.41H227.475Z" stroke="#131826" stroke-width="0.56" stroke-miterlimit="10"/>
<path d="M266.527 354.055V344.489H230.175V354.055H243.129V411.41H253.467V354.055H266.527Z" stroke="#131826" stroke-width="0.56" stroke-miterlimit="10"/>
<path d="M334.44 411.41V344.489H324.587V386.125L307.814 344.489H297.371V411.41H307.224V366.887L325.178 411.41H334.44Z" stroke="#131826" stroke-width="0.56" stroke-miterlimit="10"/>
<path d="M367.542 387.305H356.697L362.014 357.321L367.542 387.305ZM382.795 411.389L369.272 344.426H355.094L342.246 411.326H352.394L354.989 396.787H369.356L372.162 411.326L382.795 411.389Z" stroke="#131826" stroke-width="0.56" stroke-miterlimit="10"/>
<path d="M438.599 411.41V344.489H423.64L414.336 386.525L405.053 344.489H389.905V411.41H399.758V362.23L411.277 411.41H417.016L428.788 362.23V411.41H438.599Z" stroke="#131826" stroke-width="0.56" stroke-miterlimit="10"/>
<path d="M185.089 138.478L170.574 99.1809H174.794L187.051 133.253L199.309 99.1809H203.529L189.035 138.478H185.089Z" fill="#0FB05A"/>
<path d="M207.896 99.1809H211.82V138.478H207.896V99.1809Z" fill="#0FB05A"/>
<path d="M224.753 134.77H243.868V138.478H220.808V99.1809H243.572V102.889H224.753V116.859H242.18V120.568H224.753V134.77Z" fill="#0FB05A"/>
<path d="M275.345 99.1809V102.889H263.256V138.478H259.332V102.889H247.243V99.1809H275.345Z" fill="#0FB05A"/>
<path d="M320.304 99.1809H324.334V138.478H320.958L299.017 106.493V138.478H295.093V99.1809H298.447L320.368 131.188L320.304 99.1809Z" fill="#0FB05A"/>
<path d="M359.44 138.478L355.791 128.828H337.119L333.469 138.478H329.25L344.377 99.1809H348.406L363.533 138.478H359.44ZM338.533 125.119H354.377L346.444 104.048L338.533 125.119Z" fill="#0FB05A"/>
<path d="M404.632 99.1809V138.478H400.707V105.144L386.931 128.153H386.361L372.584 105.144V138.478H368.639V99.1809H373.534L386.614 121.074L399.716 99.1809H404.632Z" fill="#0FB05A"/>
<path d="M194.393 170.822L198.339 180.451H195.026L191.271 171.201H185.258L183.634 180.451H180.406L184.625 156.262H194.246C195.195 156.246 196.134 156.454 196.988 156.867C197.842 157.281 198.586 157.889 199.161 158.643C199.793 159.387 200.243 160.267 200.477 161.214C200.712 162.16 200.723 163.148 200.512 164.1C200.224 165.681 199.499 167.148 198.417 168.337C197.335 169.525 195.941 170.386 194.393 170.822ZM196.672 160.582C196.323 160.157 195.88 159.818 195.379 159.592C194.878 159.365 194.331 159.257 193.782 159.275H187.452L185.87 168.293H192.326C193.576 168.281 194.778 167.808 195.702 166.966C196.654 166.14 197.288 165.007 197.495 163.763C197.617 163.206 197.606 162.627 197.463 162.075C197.32 161.522 197.049 161.011 196.672 160.582Z" fill="#131826"/>
<path d="M223.761 180.452L222.791 175.036H211.905L208.93 180.452H205.428L218.846 156.262H222.496L227.264 180.452H223.761ZM213.529 172.023H222.242L220.133 160.034L213.529 172.023Z" fill="#131826"/>
<path d="M270.809 156.262L270.303 159.296H263.151L259.416 180.367H256.231L259.965 159.296H252.834L253.361 156.262H270.809Z" fill="#131826"/>
<path d="M295.198 156.262H298.384L294.164 180.452H290.999L292.898 169.558H281.126L279.227 180.452H275.999L280.219 156.262H283.447L281.632 166.524H293.405L295.198 156.262Z" fill="#131826"/>
<path d="M323.574 159.296H312.498L311.19 166.734H321.38L320.831 169.748H310.62L309.27 177.417H320.515L320.009 180.452H305.536L309.755 156.262H324.038L323.574 159.296ZM317.899 151.395L315.431 154.008H312.392L316.612 149.667H319.692L322.351 154.008H319.481L317.899 151.395ZM324.608 146.591H328.026L324.165 150.805H321.38L324.608 146.591Z" fill="#131826"/>
<path d="M370.474 168.462L370.242 169.874C369.726 172.971 368.117 175.781 365.706 177.797C363.192 179.88 360.006 180.981 356.74 180.894C355.084 180.994 353.429 180.702 351.908 180.043C350.387 179.384 349.042 178.376 347.984 177.101C346.964 175.818 346.245 174.323 345.88 172.726C345.515 171.129 345.513 169.47 345.874 167.872C346.466 164.492 348.234 161.429 350.867 159.224C353.499 157.019 356.827 155.813 360.263 155.82C362.335 155.719 364.392 156.231 366.174 157.292C367.957 158.352 369.386 159.915 370.284 161.783L367.394 163.321C366.757 161.938 365.718 160.778 364.413 159.993C363.107 159.208 361.595 158.833 360.073 158.917C357.398 158.876 354.804 159.83 352.794 161.593C350.765 163.296 349.423 165.677 349.018 168.293C348.759 169.459 348.756 170.667 349.007 171.834C349.258 173.001 349.758 174.101 350.474 175.057C351.265 175.983 352.264 176.71 353.39 177.178C354.515 177.647 355.735 177.844 356.951 177.754C359.031 177.882 361.097 177.336 362.842 176.197C364.586 175.058 365.916 173.387 366.635 171.433H357.816L358.343 168.525L370.474 168.462Z" fill="#131826"/>
<path d="M382.711 156.262H385.939L381.719 180.452H378.513L382.711 156.262Z" fill="#131826"/>
<path d="M396.066 177.059C395.053 175.809 394.337 174.347 393.972 172.781C393.607 171.216 393.601 169.588 393.956 168.02C394.558 164.597 396.35 161.496 399.017 159.264C401.684 157.032 405.055 155.812 408.535 155.819C409.64 155.82 410.739 155.969 411.805 156.262H414.294C415.834 156.262 416.172 155.63 416.404 154.155V153.755H419.273V154.155C418.872 156.62 417.923 158.032 415.792 158.474C416.193 158.854 416.615 159.317 416.995 159.76C417.987 161.037 418.689 162.515 419.053 164.09C419.418 165.665 419.435 167.301 419.104 168.883C418.527 172.295 416.727 175.38 414.041 177.565C411.348 179.784 407.954 180.978 404.463 180.936C402.854 181.009 401.252 180.695 399.791 180.021C398.329 179.346 397.052 178.33 396.066 177.059ZM411.995 175.141C414.022 173.46 415.371 171.102 415.792 168.504C416.051 167.331 416.049 166.116 415.786 164.943C415.524 163.771 415.007 162.671 414.273 161.719C413.516 160.785 412.547 160.043 411.447 159.556C410.346 159.069 409.146 158.85 407.944 158.917C405.313 158.897 402.77 159.858 400.813 161.614C398.806 163.348 397.483 165.738 397.078 168.357C396.819 169.514 396.818 170.713 397.073 171.871C397.328 173.028 397.834 174.116 398.555 175.057C399.306 175.96 400.258 176.674 401.335 177.143C402.413 177.611 403.585 177.821 404.758 177.754C407.426 177.823 410.023 176.89 412.037 175.141H411.995ZM411.805 149.245H415.518L411.298 153.818H408.324L411.805 149.245Z" fill="#131826"/>
<path d="M431.362 156.262H434.569L430.35 180.452H427.122L431.362 156.262Z" fill="#131826"/>
<path d="M4.32499 308.605L0 284.416H3.24899L6.64568 304.707L17.1945 284.416H20.8234L7.86938 308.605H4.32499Z" fill="#0FB05A"/>
<path d="M41.6255 308.605L40.6549 303.19H29.7686L26.8571 308.605H23.355L36.6676 284.415H40.3174L44.9801 308.605H41.6255ZM31.3932 300.176H40.1065L37.9967 288.187L31.3932 300.176ZM40.6549 282.077H37.7646L35.0219 277.504H38.5874L40.6549 282.077Z" fill="#0FB05A"/>
<path d="M95.8679 284.479L91.6483 308.668H88.4626L91.796 289.873L81.5847 302.937H81.1628L75.5297 289.641L72.1751 308.605H69.0527L73.2723 284.416H76.7955L82.1333 297.353L92.1547 284.416L95.8679 284.479Z" fill="#0FB05A"/>
<path d="M119.012 308.605L118.041 303.19H107.134L104.159 308.605H100.699L114.012 284.416H117.577L122.409 308.605H119.012ZM108.759 300.177H117.577L115.468 288.187L108.759 300.177Z" fill="#0FB05A"/>
<path d="M131.48 308.605L135.7 284.416H138.168L147.62 302.558L150.764 284.416H153.97L149.751 308.605H147.283L137.873 290.463L134.708 308.605H131.48Z" fill="#0FB05A"/>
<path d="M186.672 296.679L186.44 298.091C185.923 301.188 184.314 303.998 181.904 306.013C179.395 308.11 176.207 309.218 172.937 309.132C171.28 309.229 169.624 308.934 168.102 308.271C166.581 307.609 165.238 306.597 164.182 305.318C163.162 304.035 162.443 302.54 162.077 300.943C161.712 299.346 161.71 297.687 162.072 296.089C162.647 292.708 164.412 289.644 167.051 287.45C169.671 285.212 173.014 283.999 176.461 284.036C178.532 283.942 180.585 284.459 182.364 285.523C184.142 286.588 185.567 288.152 186.461 290.02L183.592 291.538C182.954 290.157 181.914 289 180.608 288.218C179.302 287.436 177.791 287.066 176.271 287.155C173.599 287.106 171.004 288.053 168.992 289.81C166.97 291.519 165.63 293.897 165.216 296.51C164.962 297.68 164.961 298.889 165.212 300.059C165.463 301.229 165.96 302.332 166.671 303.295C167.464 304.22 168.463 304.945 169.588 305.414C170.713 305.882 171.933 306.08 173.148 305.992C175.227 306.113 177.29 305.564 179.033 304.426C180.777 303.288 182.108 301.621 182.832 299.671H174.013L174.541 296.763L186.672 296.679Z" fill="#0FB05A"/>
</g>
<defs>
<clipPath id="clip0_312_1499">
<rect width="454" height="412" fill="white"/>
</clipPath>
</defs>
</svg>
