<svg width="24" height="24" viewBox="0 0 24 24" fill="none" xmlns="http://www.w3.org/2000/svg">
<g id="Group 36">
<path id="&#239;&#130;&#153;" d="M19.9297 8.4375C20.7109 7.85156 21.4141 7.14844 21.9609 6.32812C21.2578 6.64062 20.4375 6.875 19.6172 6.95312C20.4766 6.44531 21.1016 5.66406 21.4141 4.6875C20.6328 5.15625 19.7344 5.50781 18.8359 5.70312C18.0547 4.88281 17 4.41406 15.8281 4.41406C13.5625 4.41406 11.7266 6.25 11.7266 8.51562C11.7266 8.82812 11.7656 9.14062 11.8438 9.45312C8.44531 9.25781 5.39844 7.61719 3.36719 5.15625C3.01562 5.74219 2.82031 6.44531 2.82031 7.22656C2.82031 8.63281 3.52344 9.88281 4.65625 10.625C3.99219 10.5859 3.32812 10.4297 2.78125 10.1172V10.1562C2.78125 12.1484 4.1875 13.7891 6.0625 14.1797C5.75 14.2578 5.35938 14.3359 5.00781 14.3359C4.73438 14.3359 4.5 14.2969 4.22656 14.2578C4.73438 15.8984 6.25781 17.0703 8.05469 17.1094C6.64844 18.2031 4.89062 18.8672 2.97656 18.8672C2.625 18.8672 2.3125 18.8281 2 18.7891C3.79688 19.9609 5.94531 20.625 8.28906 20.625C15.8281 20.625 19.9297 14.4141 19.9297 8.98438C19.9297 8.78906 19.9297 8.63281 19.9297 8.4375Z" fill="#131826"/>
</g>
</svg>
