<svg width="24" height="24" viewBox="0 0 24 24" fill="none" xmlns="http://www.w3.org/2000/svg">
<path d="M22.1953 7.38281C21.9609 6.44531 21.2188 5.70312 20.3203 5.46875C18.6406 5 12 5 12 5C12 5 5.32031 5 3.64062 5.46875C2.74219 5.70312 2 6.44531 1.76562 7.38281C1.29688 9.02344 1.29688 12.5391 1.29688 12.5391C1.29688 12.5391 1.29688 16.0156 1.76562 17.6953C2 18.6328 2.74219 19.3359 3.64062 19.5703C5.32031 20 12 20 12 20C12 20 18.6406 20 20.3203 19.5703C21.2188 19.3359 21.9609 18.6328 22.1953 17.6953C22.6641 16.0156 22.6641 12.5391 22.6641 12.5391C22.6641 12.5391 22.6641 9.02344 22.1953 7.38281ZM9.8125 15.7031V9.375L15.3594 12.5391L9.8125 15.7031Z" fill="#131826"/>
</svg>
