<svg width="40" height="44" viewBox="0 0 40 44" fill="none" xmlns="http://www.w3.org/2000/svg">
<path id="Vector" d="M15.8971 3.1875C15.8971 1.70098 17.1194 0.5 18.6324 0.5H21.3676C22.8806 0.5 24.1029 1.70098 24.1029 3.1875V15.0209L34.5313 9.1084C35.8391 8.36934 37.5144 8.80605 38.2666 10.091L39.6343 12.4174C40.3865 13.7023 39.942 15.3484 38.6342 16.0875L28.2059 22L38.6342 27.9125C39.942 28.6516 40.3865 30.2977 39.6343 31.5826L38.2666 33.909C37.5144 35.1939 35.8391 35.6391 34.5313 34.8916L24.1029 28.9791V40.8125C24.1029 42.299 22.8806 43.5 21.3676 43.5H18.6324C17.1194 43.5 15.8971 42.299 15.8971 40.8125V28.9791L5.46874 34.9C4.16093 35.6391 2.48556 35.2023 1.73335 33.9174L0.365706 31.591C-0.3865 30.3061 0.0579856 28.66 1.3658 27.9209L11.7941 22L1.3658 16.0875C0.0579856 15.3484 -0.3865 13.7023 0.365706 12.4174L1.73335 10.091C2.48556 8.79766 4.16093 8.36094 5.46874 9.1L15.8971 15.0125V3.1875Z" fill="#0FB05A"/>
</svg>
