<svg width="44" height="48" viewBox="0 0 44 48" fill="none" xmlns="http://www.w3.org/2000/svg">
<path id="Vector" d="M27.1029 15.3044V5.1875C27.1029 3.13215 25.4162 1.5 23.3676 1.5H20.6324C18.5838 1.5 16.8971 3.13215 16.8971 5.1875V15.296L7.96195 10.2301L7.96073 10.2294C6.18823 9.22773 3.90464 9.81016 2.87019 11.5861C2.86977 11.5868 2.86934 11.5875 2.86892 11.5883L1.50364 13.9106L1.5027 13.9122C0.466634 15.6821 1.08316 17.9462 2.87381 18.9581L11.7677 24.0006L2.87381 29.0503C2.87352 29.0505 2.87322 29.0506 2.87293 29.0508C1.08296 30.063 0.466803 32.3266 1.5027 34.0962L1.50364 34.0978L2.87035 36.4226C2.87046 36.4228 2.87057 36.423 2.87068 36.4231C3.90552 38.1902 6.18869 38.772 7.96073 37.7706L7.96248 37.7696L16.8971 32.6968V42.8125C16.8971 44.8679 18.5838 46.5 20.6324 46.5H23.3676C25.4162 46.5 27.1029 44.8679 27.1029 42.8125V32.6956L36.035 37.7598C36.0358 37.7602 36.0365 37.7606 36.0372 37.7611C37.8157 38.7759 40.0976 38.1765 41.1293 36.4147L41.1287 36.4158L40.2666 35.909L41.1297 36.4142L27.1029 15.3044ZM27.1029 15.3044L36.038 10.2385L36.0393 10.2378C37.8111 9.23653 40.0938 9.81802 41.1289 11.5845C41.1291 11.5849 41.1294 11.5854 41.1297 11.5858M27.1029 15.3044L41.1297 11.5858M41.1297 11.5858L40.2666 12.091L41.1297 11.5858ZM41.1272 29.0425C41.1269 29.0423 41.1265 29.0421 41.1262 29.0419L41.1272 29.0425Z" stroke="#CFDDD6" stroke-width="2"/>
</svg>
