<svg width="395" height="34" viewBox="0 0 395 34" fill="none" xmlns="http://www.w3.org/2000/svg">
<rect x="0.5" y="15.5" width="60" height="3" fill="#0FB05A"/>
<path d="M86.32 5.4V25H94.104C96.792 25 99.032 24.048 100.824 22.172C102.644 20.296 103.54 17.972 103.54 15.2C103.54 12.428 102.644 10.104 100.824 8.228C99.032 6.352 96.792 5.4 94.104 5.4H86.32ZM90.184 21.304V9.096H94.104C95.812 9.096 97.184 9.656 98.248 10.804C99.312 11.924 99.844 13.38 99.844 15.2C99.844 17.02 99.312 18.476 98.248 19.624C97.184 20.744 95.812 21.304 94.104 21.304H90.184ZM115.353 18.56C115.353 20.884 114.149 22.032 112.273 22.032C110.593 22.032 109.501 21.024 109.501 19.148V11H105.889V19.596C105.889 21.416 106.393 22.816 107.373 23.852C108.381 24.888 109.641 25.392 111.181 25.392C113.085 25.392 114.485 24.748 115.353 23.432V25H118.965V13.436C121.037 13.128 121.737 11.952 121.737 9.488V9.012H118.825V9.488C118.825 10.496 118.685 10.972 117.761 11H115.353V18.56ZM128.937 31.384C130.169 31.384 131.177 30.404 131.177 29.228C131.177 28.052 130.169 27.044 128.937 27.044C127.733 27.044 126.725 28.052 126.725 29.228C126.725 30.404 127.733 31.384 128.937 31.384ZM134.201 23.264C135.629 21.836 136.357 20.072 136.357 18C136.357 16.18 135.769 14.584 134.649 13.268C136.189 12.792 136.721 11.644 136.721 9.488V9.012H133.809V9.488C133.809 10.552 133.641 11 132.605 11H131.401C130.645 10.748 129.805 10.608 128.937 10.608C126.865 10.608 125.101 11.336 123.673 12.764C122.245 14.192 121.545 15.928 121.545 18C121.545 20.072 122.245 21.836 123.673 23.264C125.101 24.692 126.865 25.392 128.937 25.392C131.009 25.392 132.773 24.692 134.201 23.264ZM126.221 20.772C125.521 20.044 125.157 19.12 125.157 18C125.157 16.88 125.521 15.956 126.221 15.228C126.949 14.5 127.845 14.136 128.937 14.136C130.029 14.136 130.925 14.5 131.653 15.228C132.381 15.956 132.745 16.88 132.745 18C132.745 19.12 132.381 20.044 131.653 20.772C130.925 21.5 130.029 21.864 128.937 21.864C127.845 21.864 126.949 21.5 126.221 20.772ZM145.562 25.392C148.278 25.392 150.658 23.964 151.89 21.752L148.754 19.96C148.194 21.108 146.99 21.808 145.534 21.808C144.442 21.808 143.546 21.444 142.846 20.744C142.146 20.016 141.782 19.092 141.782 18C141.782 15.76 143.378 14.164 145.534 14.164C146.962 14.164 148.166 14.892 148.726 16.04L151.834 14.22C150.686 12.008 148.278 10.608 145.562 10.608C143.462 10.608 141.698 11.308 140.27 12.736C138.87 14.164 138.17 15.9 138.17 18C138.17 20.1 138.87 21.836 140.27 23.264C141.698 24.692 143.462 25.392 145.562 25.392ZM169.058 10.608C167.098 10.608 165.586 11.28 164.522 12.652V11H160.91V30.6H164.522V23.348C165.586 24.72 167.098 25.392 169.058 25.392C170.934 25.392 172.558 24.692 173.874 23.264C175.218 21.836 175.89 20.072 175.89 18C175.89 15.928 175.218 14.192 173.874 12.764C172.558 11.336 170.934 10.608 169.058 10.608ZM165.614 20.856C164.886 20.1 164.522 19.148 164.522 18C164.522 16.852 164.886 15.9 165.614 15.172C166.342 14.416 167.266 14.052 168.386 14.052C169.506 14.052 170.43 14.416 171.158 15.172C171.914 15.9 172.278 16.852 172.278 18C172.278 19.148 171.914 20.1 171.158 20.856C170.43 21.584 169.506 21.948 168.386 21.948C167.266 21.948 166.342 21.584 165.614 20.856ZM186.221 10.608C184.317 10.608 182.917 11.252 182.049 12.568V5.4H178.437V25H182.049V17.44C182.049 15.116 183.253 13.968 185.129 13.968C186.809 13.968 187.901 14.976 187.901 16.852V25H191.513V16.404C191.513 14.584 191.009 13.184 190.001 12.148C189.021 11.112 187.761 10.608 186.221 10.608ZM203.613 9.46H206.945L204.173 5.68H200.757L198.013 9.46H201.345L202.493 7.752L203.613 9.46ZM205.237 12.652C204.145 11.28 202.633 10.608 200.673 10.608C198.797 10.608 197.201 11.336 195.857 12.764C194.541 14.192 193.869 15.928 193.869 18C193.869 20.072 194.541 21.836 195.857 23.264C197.201 24.692 198.797 25.392 200.673 25.392C202.633 25.392 204.145 24.72 205.237 23.348V25H208.849V11H205.237V12.652ZM198.573 20.856C197.845 20.1 197.481 19.148 197.481 18C197.481 16.852 197.845 15.9 198.573 15.172C199.301 14.416 200.225 14.052 201.345 14.052C202.465 14.052 203.389 14.416 204.117 15.172C204.873 15.9 205.237 16.852 205.237 18C205.237 19.148 204.873 20.1 204.117 20.856C203.389 21.584 202.465 21.948 201.345 21.948C200.225 21.948 199.301 21.584 198.573 20.856ZM207.869 6.66C207.813 6.044 207.981 5.876 208.317 5.708C208.877 5.428 209.353 4.812 209.353 3.804C209.353 2.404 208.233 1.62 206.749 1.62C205.293 1.62 204.313 2.292 203.753 3.58L205.685 4.308C205.937 3.664 206.301 3.552 206.721 3.552C207.029 3.552 207.113 3.72 207.113 3.86C207.113 4.168 206.945 4.336 206.805 4.42C206.833 4.392 206.581 4.56 206.581 4.56C205.909 4.924 205.657 5.176 205.657 6.66H207.869ZM227.609 10.608C225.761 10.608 224.361 11.28 223.437 12.624C222.625 11.28 221.337 10.608 219.629 10.608C217.865 10.608 216.577 11.224 215.737 12.484V11H212.125V25H215.737V17.132C215.737 15.088 216.773 13.968 218.369 13.968C219.853 13.968 220.721 14.948 220.721 16.628V25H224.333V17.132C224.333 15.088 225.285 13.968 226.937 13.968C228.421 13.968 229.289 14.948 229.289 16.628V25H232.901V16.376C232.901 12.876 230.829 10.608 227.609 10.608Z" fill="#131826"/>
</svg>
