<svg width="395" height="34" viewBox="0 0 395 34" fill="none" xmlns="http://www.w3.org/2000/svg">
<rect x="0.5" y="15.5" width="60" height="3" fill="#0FB05A"/>
<path d="M84.864 5.4V9.096H90.128V25H93.992V9.096H99.284V5.4H84.864ZM106.766 5.4H102.426L105.534 9.236H109.006L106.766 5.4ZM109.37 12.652C108.278 11.28 106.766 10.608 104.806 10.608C102.93 10.608 101.334 11.336 99.9901 12.764C98.6741 14.192 98.0021 15.928 98.0021 18C98.0021 20.072 98.6741 21.836 99.9901 23.264C101.334 24.692 102.93 25.392 104.806 25.392C106.766 25.392 108.278 24.72 109.37 23.348V25H112.982V11H109.37V12.652ZM102.706 20.856C101.978 20.1 101.614 19.148 101.614 18C101.614 16.852 101.978 15.9 102.706 15.172C103.434 14.416 104.358 14.052 105.478 14.052C106.598 14.052 107.522 14.416 108.25 15.172C109.006 15.9 109.37 16.852 109.37 18C109.37 19.148 109.006 20.1 108.25 20.856C107.522 21.584 106.598 21.948 105.478 21.948C104.358 21.948 103.434 21.584 102.706 20.856ZM118.049 9.768C119.281 9.768 120.289 8.788 120.289 7.612C120.289 6.436 119.281 5.428 118.049 5.428C116.845 5.428 115.837 6.436 115.837 7.612C115.837 8.788 116.845 9.768 118.049 9.768ZM119.869 25V11H116.257V25H119.869ZM136.839 25.392C139.555 25.392 141.935 23.964 143.167 21.752L140.031 19.96C139.471 21.108 138.267 21.808 136.811 21.808C135.719 21.808 134.823 21.444 134.123 20.744C133.423 20.016 133.059 19.092 133.059 18C133.059 15.76 134.655 14.164 136.811 14.164C138.239 14.164 139.443 14.892 140.003 16.04L143.111 14.22C141.963 12.008 139.555 10.608 136.839 10.608C134.739 10.608 132.975 11.308 131.547 12.736C130.147 14.164 129.447 15.9 129.447 18C129.447 20.1 130.147 21.836 131.547 23.264C132.975 24.692 134.739 25.392 136.839 25.392ZM152.971 10.608C151.067 10.608 149.667 11.252 148.799 12.568V5.4H145.187V25H148.799V17.44C148.799 15.116 150.003 13.968 151.879 13.968C153.559 13.968 154.651 14.976 154.651 16.852V25H158.263V16.404C158.263 14.584 157.759 13.184 156.751 12.148C155.771 11.112 154.511 10.608 152.971 10.608ZM161.375 9.46H164.847L166.695 5.4H162.551L161.375 9.46ZM161.347 25V11H164.959V25H161.347ZM176.049 10.608C174.145 10.608 172.745 11.252 171.877 12.568V11H168.265V25H171.877V17.44C171.877 15.116 173.081 13.968 174.957 13.968C176.637 13.968 177.729 14.976 177.729 16.852V25H181.341V16.404C181.341 14.584 180.837 13.184 179.829 12.148C178.849 11.112 177.589 10.608 176.049 10.608ZM192.209 10.608C190.305 10.608 188.905 11.252 188.037 12.568V5.4H184.425V25H188.037V17.44C188.037 15.116 189.241 13.968 191.117 13.968C192.797 13.968 193.889 14.976 193.889 16.852V25H197.501V16.404C197.501 14.584 196.997 13.184 195.989 12.148C195.009 11.112 193.749 10.608 192.209 10.608ZM218.254 18.28V14.808H207.754V18.28H218.254ZM240.23 17.356L231.83 5.4H228.89V25H232.754V13.016L241.154 25H244.094V5.4H240.23V17.356ZM258.286 12.736C257.222 11.308 255.738 10.608 253.806 10.608C251.846 10.608 250.194 11.308 248.85 12.708C247.506 14.108 246.834 15.788 246.834 17.776C246.834 19.764 247.506 21.472 248.822 22.872C250.166 24.244 251.818 24.944 253.806 24.944C255.738 24.944 257.222 24.244 258.286 22.816V24.328C258.286 26.54 256.886 27.772 254.618 27.772C252.882 27.772 251.65 27.128 250.95 25.812L247.87 27.576C249.102 29.816 251.482 30.992 254.506 30.992C256.522 30.992 258.23 30.432 259.658 29.284C261.086 28.136 261.814 26.484 261.814 24.328V11H258.286V12.736ZM258.286 17.776C258.286 20.016 256.634 21.612 254.366 21.612C252.098 21.612 250.446 20.016 250.446 17.776C250.446 16.684 250.81 15.76 251.538 15.06C252.294 14.332 253.218 13.968 254.366 13.968C255.514 13.968 256.438 14.332 257.166 15.06C257.922 15.76 258.286 16.684 258.286 17.776ZM274.19 9.46H277.774L274.806 5.4H271.138L268.17 9.46H271.754L272.986 7.64L274.19 9.46ZM275.73 12.652C274.638 11.28 273.126 10.608 271.166 10.608C269.29 10.608 267.694 11.336 266.35 12.764C265.034 14.192 264.361 15.928 264.361 18C264.361 20.072 265.034 21.836 266.35 23.264C267.694 24.692 269.29 25.392 271.166 25.392C273.126 25.392 274.638 24.72 275.73 23.348V25H279.342V11H275.73V12.652ZM269.066 20.856C268.338 20.1 267.974 19.148 267.974 18C267.974 16.852 268.338 15.9 269.066 15.172C269.794 14.416 270.718 14.052 271.838 14.052C272.958 14.052 273.882 14.416 274.61 15.172C275.366 15.9 275.73 16.852 275.73 18C275.73 19.148 275.366 20.1 274.61 20.856C273.882 21.584 272.958 21.948 271.838 21.948C270.718 21.948 269.794 21.584 269.066 20.856ZM290.401 10.608C288.497 10.608 287.097 11.252 286.229 12.568V11H282.617V25H286.229V17.44C286.229 15.116 287.433 13.968 289.309 13.968C290.989 13.968 292.081 14.976 292.081 16.852V25H295.693V16.404C295.693 14.584 295.189 13.184 294.181 12.148C293.201 11.112 291.941 10.608 290.401 10.608ZM313.561 10.608C311.657 10.608 310.257 11.252 309.389 12.568V5.4H305.777V25H309.389V17.44C309.389 15.116 310.593 13.968 312.469 13.968C314.149 13.968 315.241 14.976 315.241 16.852V25H318.853V16.404C318.853 14.584 318.349 13.184 317.341 12.148C316.361 11.112 315.101 10.608 313.561 10.608ZM329.973 5.4H325.633L328.741 9.236H332.213L329.973 5.4ZM332.577 12.652C331.485 11.28 329.973 10.608 328.013 10.608C326.137 10.608 324.541 11.336 323.197 12.764C321.881 14.192 321.209 15.928 321.209 18C321.209 20.072 321.881 21.836 323.197 23.264C324.541 24.692 326.137 25.392 328.013 25.392C329.973 25.392 331.485 24.72 332.577 23.348V25H336.189V11H332.577V12.652ZM325.913 20.856C325.185 20.1 324.821 19.148 324.821 18C324.821 16.852 325.185 15.9 325.913 15.172C326.641 14.416 327.565 14.052 328.685 14.052C329.805 14.052 330.729 14.416 331.457 15.172C332.213 15.9 332.577 16.852 332.577 18C332.577 19.148 332.213 20.1 331.457 20.856C330.729 21.584 329.805 21.948 328.685 21.948C327.565 21.948 326.641 21.584 325.913 20.856ZM347.249 10.608C345.345 10.608 343.945 11.252 343.077 12.568V11H339.465V25H343.077V17.44C343.077 15.116 344.281 13.968 346.157 13.968C347.837 13.968 348.929 14.976 348.929 16.852V25H352.541V16.404C352.541 14.584 352.037 13.184 351.029 12.148C350.049 11.112 348.789 10.608 347.249 10.608ZM366.349 12.736C365.285 11.308 363.801 10.608 361.869 10.608C359.909 10.608 358.257 11.308 356.913 12.708C355.569 14.108 354.897 15.788 354.897 17.776C354.897 19.764 355.569 21.472 356.885 22.872C358.229 24.244 359.881 24.944 361.869 24.944C363.801 24.944 365.285 24.244 366.349 22.816V24.328C366.349 26.54 364.949 27.772 362.681 27.772C360.945 27.772 359.713 27.128 359.013 25.812L355.933 27.576C357.165 29.816 359.545 30.992 362.569 30.992C364.585 30.992 366.293 30.432 367.721 29.284C369.149 28.136 369.877 26.484 369.877 24.328V11H366.349V12.736ZM366.349 17.776C366.349 20.016 364.697 21.612 362.429 21.612C360.161 21.612 358.509 20.016 358.509 17.776C358.509 16.684 358.873 15.76 359.601 15.06C360.357 14.332 361.281 13.968 362.429 13.968C363.577 13.968 364.501 14.332 365.229 15.06C365.985 15.76 366.349 16.684 366.349 17.776Z" fill="#131826"/>
</svg>
