<svg width="395" height="34" viewBox="0 0 395 34" fill="none" xmlns="http://www.w3.org/2000/svg">
<rect x="0.5" y="15.5" width="60" height="3" fill="#0FB05A"/>
<path d="M95.616 25.392C99.2 25.392 102.364 23.6 104.044 20.772L100.712 18.84C99.788 20.548 97.856 21.612 95.616 21.612C93.712 21.612 92.172 21.024 90.996 19.82C89.848 18.616 89.26 17.076 89.26 15.2C89.26 13.296 89.848 11.756 90.996 10.552C92.172 9.348 93.712 8.76 95.616 8.76C97.856 8.76 99.732 9.796 100.712 11.56L104.044 9.628C102.364 6.8 99.172 5.008 95.616 5.008C92.676 5.008 90.24 5.988 88.308 7.948C86.376 9.88 85.424 12.316 85.424 15.2C85.424 18.084 86.376 20.492 88.308 22.452C90.24 24.412 92.676 25.392 95.616 25.392ZM114.364 9.236H117.948L114.98 5.176H111.312L108.344 9.236H111.928L113.16 7.416L114.364 9.236ZM107.868 12.764C106.44 14.192 105.74 15.928 105.74 18C105.74 20.072 106.44 21.836 107.868 23.264C109.296 24.692 111.06 25.392 113.132 25.392C115.204 25.392 116.968 24.692 118.396 23.264C119.824 21.836 120.552 20.072 120.552 18C120.552 15.928 119.824 14.192 118.396 12.764C116.968 11.336 115.204 10.608 113.132 10.608C111.06 10.608 109.296 11.336 107.868 12.764ZM110.416 20.772C109.716 20.044 109.352 19.12 109.352 18C109.352 16.88 109.716 15.956 110.416 15.228C111.144 14.5 112.04 14.136 113.132 14.136C114.224 14.136 115.12 14.5 115.848 15.228C116.576 15.956 116.94 16.88 116.94 18C116.94 19.12 116.576 20.044 115.848 20.772C115.12 21.5 114.224 21.864 113.132 21.864C112.04 21.864 111.144 21.5 110.416 20.772ZM130.877 10.608C128.973 10.608 127.573 11.252 126.705 12.568V11H123.093V25H126.705V17.44C126.705 15.116 127.909 13.968 129.785 13.968C131.465 13.968 132.557 14.976 132.557 16.852V25H136.169V16.404C136.169 14.584 135.665 13.184 134.657 12.148C133.677 11.112 132.417 10.608 130.877 10.608ZM149.978 12.736C148.914 11.308 147.43 10.608 145.498 10.608C143.538 10.608 141.886 11.308 140.542 12.708C139.198 14.108 138.526 15.788 138.526 17.776C138.526 19.764 139.198 21.472 140.514 22.872C141.858 24.244 143.51 24.944 145.498 24.944C147.43 24.944 148.914 24.244 149.978 22.816V24.328C149.978 26.54 148.578 27.772 146.31 27.772C144.574 27.772 143.342 27.128 142.642 25.812L139.562 27.576C140.794 29.816 143.174 30.992 146.198 30.992C148.214 30.992 149.922 30.432 151.35 29.284C152.778 28.136 153.506 26.484 153.506 24.328V11H149.978V12.736ZM149.978 17.776C149.978 20.016 148.326 21.612 146.058 21.612C143.79 21.612 142.138 20.016 142.138 17.776C142.138 16.684 142.502 15.76 143.23 15.06C143.986 14.332 144.91 13.968 146.058 13.968C147.206 13.968 148.13 14.332 148.858 15.06C149.614 15.76 149.978 16.684 149.978 17.776ZM171.565 10.608C169.661 10.608 168.261 11.252 167.393 12.568V11H163.781V25H167.393V17.44C167.393 15.116 168.597 13.968 170.473 13.968C172.153 13.968 173.245 14.976 173.245 16.852V25H176.857V16.404C176.857 14.584 176.353 13.184 175.345 12.148C174.365 11.112 173.105 10.608 171.565 10.608ZM190.665 12.736C189.601 11.308 188.117 10.608 186.185 10.608C184.225 10.608 182.573 11.308 181.229 12.708C179.885 14.108 179.213 15.788 179.213 17.776C179.213 19.764 179.885 21.472 181.201 22.872C182.545 24.244 184.197 24.944 186.185 24.944C188.117 24.944 189.601 24.244 190.665 22.816V24.328C190.665 26.54 189.265 27.772 186.997 27.772C185.261 27.772 184.029 27.128 183.329 25.812L180.249 27.576C181.481 29.816 183.861 30.992 186.885 30.992C188.901 30.992 190.609 30.432 192.037 29.284C193.465 28.136 194.193 26.484 194.193 24.328V11H190.665V12.736ZM190.665 17.776C190.665 20.016 189.013 21.612 186.745 21.612C184.477 21.612 182.825 20.016 182.825 17.776C182.825 16.684 183.189 15.76 183.917 15.06C184.673 14.332 185.597 13.968 186.745 13.968C187.893 13.968 188.817 14.332 189.545 15.06C190.301 15.76 190.665 16.684 190.665 17.776ZM205.252 10.608C203.348 10.608 201.948 11.252 201.08 12.568V5.4H197.468V25H201.08V17.44C201.08 15.116 202.284 13.968 204.16 13.968C205.84 13.968 206.932 14.976 206.932 16.852V25H210.544V16.404C210.544 14.584 210.04 13.184 209.032 12.148C208.052 11.112 206.792 10.608 205.252 10.608ZM215.421 9.768C216.653 9.768 217.661 8.788 217.661 7.612C217.661 6.436 216.653 5.428 215.421 5.428C214.217 5.428 213.209 6.436 213.209 7.612C213.209 8.788 214.217 9.768 215.421 9.768ZM217.241 25V11H213.629V25H217.241ZM228.415 9.348H231.747L228.975 5.568H225.559L222.815 9.348H226.147L227.295 7.64L228.415 9.348ZM234.155 19.484C234.239 18.952 234.295 18.476 234.295 18C234.295 15.9 233.623 14.164 232.279 12.736C230.963 11.308 229.255 10.608 227.211 10.608C225.055 10.608 223.263 11.308 221.891 12.736C220.519 14.136 219.819 15.9 219.819 18C219.819 20.128 220.519 21.892 221.919 23.292C223.319 24.692 225.167 25.392 227.491 25.392C230.179 25.392 232.223 24.384 233.595 22.396L230.683 20.716C229.983 21.64 228.919 22.116 227.547 22.116C225.391 22.116 224.075 21.248 223.599 19.484H234.155ZM223.543 16.684C223.963 14.892 225.279 13.856 227.211 13.856C228.863 13.856 230.263 14.78 230.683 16.684H223.543ZM227.183 31.384C228.415 31.384 229.423 30.404 229.423 29.228C229.423 28.052 228.415 27.044 227.183 27.044C225.979 27.044 224.971 28.052 224.971 29.228C224.971 30.404 225.979 31.384 227.183 31.384ZM244.964 10.608C243.004 10.608 241.492 11.28 240.428 12.652V11H236.816V30.6H240.428V23.348C241.492 24.72 243.004 25.392 244.964 25.392C246.84 25.392 248.464 24.692 249.78 23.264C251.124 21.836 251.796 20.072 251.796 18C251.796 15.928 251.124 14.192 249.78 12.764C248.464 11.336 246.84 10.608 244.964 10.608ZM241.52 20.856C240.792 20.1 240.428 19.148 240.428 18C240.428 16.852 240.792 15.9 241.52 15.172C242.248 14.416 243.172 14.052 244.292 14.052C245.412 14.052 246.336 14.416 247.064 15.172C247.82 15.9 248.184 16.852 248.184 18C248.184 19.148 247.82 20.1 247.064 20.856C246.336 21.584 245.412 21.948 244.292 21.948C243.172 21.948 242.248 21.584 241.52 20.856Z" fill="#131826"/>
</svg>
